<svg xmlns="http://www.w3.org/2000/svg" version="1.1" xmlns:xlink="http://www.w3.org/1999/xlink" xmlns:svgjs="http://svgjs.dev/svgjs" width="2000" height="2250" viewBox="0 0 2000 2250"><g transform="matrix(1,0,0,1,0.0004624580885774776,0)"><svg viewBox="0 0 320 360" data-background-color="#000000" preserveAspectRatio="xMidYMid meet" height="2250" width="2000" xmlns="http://www.w3.org/2000/svg" xmlns:xlink="http://www.w3.org/1999/xlink"><g id="tight-bounds" transform="matrix(1,0,0,1,-0.00007399329416557521,0)"><svg viewBox="0 0 320 360" height="360" width="320"><rect width="320.00014798658833" height="360" fill="url(#ed99dfd9-1179-462a-b59f-fe23d3f6c530)" mask="url(#f690b176-5413-49a2-9db2-47db76957b6e)" data-fill-palette-color="tertiary"></rect><g><svg></svg></g><g><svg viewBox="0 0 320 360" height="360" width="320"><g><path transform="translate(-17.30355,3.60951) scale(3.54253,3.54253)" d="M50 95v0c-2.2 0-4.1-1.4-4.7-3.5-0.3-1.1-1.5-1.7-2.5-1.4-0.4 0.1-0.8 0.4-1.1 0.8-1.6 2.2-4.6 2.8-6.9 1.2-1.4-0.9-2.2-2.5-2.1-4.2 0-1.1-0.9-2.1-2-2.1-0.5 0-0.9 0.1-1.3 0.4-2.2 1.6-5.3 1.2-6.9-1-1-1.3-1.3-3-0.7-4.6 0.4-1.1-0.2-2.2-1.3-2.6-0.4-0.1-0.9-0.1-1.3 0-2.6 0.9-5.4-0.5-6.3-3.1-0.5-1.5-0.3-3.3 0.7-4.6 0.7-0.9 0.5-2.2-0.4-2.8-0.4-0.3-0.8-0.4-1.3-0.4-2.7 0.1-5-2.1-5-4.8 0-1.7 0.8-3.2 2.1-4.2 0.9-0.6 1.1-1.9 0.5-2.8-0.3-0.4-0.6-0.6-1.1-0.8-2.6-0.8-4.1-3.6-3.3-6.2 0.5-1.6 1.7-2.8 3.3-3.3 1.1-0.3 1.7-1.5 1.4-2.5-0.1-0.4-0.4-0.8-0.8-1.1-2.2-1.6-2.8-4.6-1.2-6.9 0.9-1.4 2.5-2.2 4.2-2.1 1.1 0 2.1-0.9 2.1-2 0-0.5-0.1-0.9-0.4-1.3-1.6-2.2-1.2-5.3 1-6.9 1.3-1 3-1.3 4.6-0.7 1.1 0.4 2.2-0.2 2.6-1.3 0.1-0.4 0.1-0.9 0-1.3-0.9-2.6 0.5-5.4 3.1-6.3 1.5-0.5 3.3-0.3 4.6 0.7 0.9 0.7 2.2 0.5 2.8-0.4 0.3-0.4 0.4-0.8 0.4-1.3-0.1-2.7 2.1-5 4.8-5 1.7 0 3.2 0.8 4.2 2.1 0.6 0.9 1.9 1.1 2.8 0.5 0.4-0.3 0.6-0.6 0.8-1.1 0.8-2.6 3.6-4.1 6.2-3.3 1.6 0.5 2.8 1.7 3.3 3.3v0c0.2 0.7 0.8 1.3 1.6 1.4 0.8 0.1 1.5-0.2 2-0.8 1.6-2.2 4.6-2.8 6.9-1.2 1.4 0.9 2.2 2.5 2.1 4.2 0 1.1 0.9 2.1 2 2.1 0.5 0 0.9-0.1 1.3-0.4 2.2-1.6 5.3-1.2 6.9 1 1 1.3 1.3 3 0.7 4.6-0.4 1.1 0.2 2.2 1.3 2.6 0.4 0.1 0.9 0.1 1.3 0 2.6-0.9 5.4 0.5 6.3 3.1 0.5 1.5 0.3 3.3-0.7 4.6-0.7 0.9-0.5 2.2 0.4 2.8 0.4 0.3 0.8 0.4 1.3 0.4 2.7-0.1 5 2.1 5 4.8 0 1.7-0.8 3.2-2.1 4.2-0.7 0.4-1 1.2-0.9 2 0.1 0.8 0.7 1.4 1.4 1.6 2.6 0.8 4.1 3.6 3.3 6.2-0.5 1.6-1.7 2.8-3.3 3.3-1.1 0.3-1.7 1.5-1.4 2.5 0.1 0.4 0.4 0.8 0.8 1.1 2.2 1.6 2.8 4.6 1.2 6.9-0.9 1.4-2.5 2.2-4.2 2.1-0.8 0-1.5 0.4-1.9 1.1-0.4 0.7-0.3 1.5 0.2 2.2 1.6 2.2 1.2 5.3-1 6.9-1.3 1-3 1.3-4.6 0.7-1.1-0.4-2.2 0.2-2.6 1.3-0.1 0.4-0.1 0.9 0 1.3 0.9 2.6-0.5 5.4-3.1 6.3-1.5 0.5-3.3 0.3-4.6-0.7-0.9-0.7-2.2-0.5-2.8 0.4-0.3 0.4-0.4 0.8-0.4 1.3 0.1 2.7-2.1 5-4.8 5-1.7 0-3.2-0.8-4.2-2.1-0.4-0.6-1.2-1-2-0.8-0.8 0.1-1.4 0.7-1.6 1.4-0.6 2.1-2.5 3.5-4.7 3.5zM43.3 87.2c0.3 0 0.5 0 0.8 0.1 1.9 0.3 3.4 1.6 3.9 3.4 0.3 1.1 1.5 1.7 2.5 1.3 0.6-0.2 1.1-0.7 1.3-1.3 0.8-2.6 3.6-4.1 6.2-3.3 1 0.3 2 1 2.6 1.9 0.7 0.9 1.9 1.1 2.9 0.4 0.5-0.4 0.8-1 0.8-1.6-0.1-2.7 2.1-5 4.8-5 1.1 0 2.2 0.3 3.1 1 0.9 0.7 2.2 0.5 2.8-0.4 0.4-0.5 0.5-1.3 0.3-1.9-0.9-2.6 0.4-5.4 3-6.3 1.1-0.4 2.2-0.4 3.3 0 1.1 0.4 2.2-0.2 2.6-1.3 0.2-0.6 0.1-1.4-0.3-1.9-1.6-2.2-1.2-5.3 1-6.9 0.9-0.7 2-1 3.1-1 1.1 0 2-0.9 2.1-2 0-0.7-0.3-1.3-0.9-1.7-2.2-1.6-2.8-4.6-1.2-6.9 0.6-0.9 1.5-1.6 2.6-1.9 1.1-0.3 1.7-1.5 1.3-2.5-0.2-0.6-0.7-1.1-1.3-1.3-2.6-0.8-4.1-3.6-3.3-6.2 0.3-1 1-2 1.9-2.6 0.9-0.7 1.1-2 0.4-2.9-0.4-0.5-1-0.8-1.6-0.8-2.7 0.1-5-2.1-5-4.8 0-1.1 0.3-2.2 1-3.1 0.7-0.9 0.5-2.2-0.4-2.8-0.5-0.4-1.3-0.5-1.9-0.3-2.6 0.9-5.4-0.4-6.3-3-0.4-1.1-0.4-2.2 0-3.3 0.4-1.1-0.2-2.2-1.3-2.6-0.6-0.2-1.4-0.1-1.9 0.3-2.2 1.6-5.3 1.2-6.9-1-0.7-0.9-1-2-1-3.1 0-1.1-0.9-2-2.1-2-0.6 0-1.3 0.3-1.6 0.8-1.6 2.2-4.6 2.8-6.9 1.2-0.9-0.6-1.6-1.5-1.9-2.6v0c-0.3-1.1-1.5-1.7-2.5-1.3-0.6 0.2-1.1 0.7-1.3 1.3-0.8 2.6-3.6 4.1-6.2 3.3-1-0.3-2-1-2.6-1.9-0.7-0.9-1.9-1.1-2.9-0.4-0.5 0.4-0.8 1-0.8 1.6 0.1 2.7-2.1 5-4.8 5-1.1 0-2.2-0.3-3.1-1-0.9-0.7-2.2-0.5-2.8 0.4-0.4 0.5-0.5 1.3-0.3 1.9 0.9 2.6-0.4 5.4-3 6.3-1.1 0.4-2.2 0.4-3.3 0-1.1-0.4-2.2 0.2-2.6 1.3-0.2 0.6-0.1 1.4 0.3 1.9 1.6 2.2 1.2 5.3-1 6.9-0.9 0.7-2 1-3.1 1-1.1 0-2 0.9-2 2.1 0 0.6 0.3 1.3 0.8 1.6 2.2 1.6 2.8 4.6 1.2 6.9-0.6 0.9-1.5 1.6-2.6 1.9-1.1 0.3-1.7 1.5-1.3 2.5 0.2 0.6 0.7 1.1 1.3 1.3 2.6 0.8 4.1 3.6 3.3 6.2-0.3 1-1 2-1.9 2.6-0.9 0.7-1.1 1.9-0.4 2.9 0.4 0.5 1 0.8 1.6 0.8 2.7-0.1 5 2.1 5 4.8 0 1.1-0.3 2.2-1 3.1-0.7 0.9-0.5 2.2 0.4 2.8 0.5 0.4 1.3 0.5 1.9 0.3 2.6-0.9 5.4 0.4 6.3 3 0.4 1.1 0.4 2.2 0 3.3-0.4 1.1 0.2 2.2 1.3 2.6 0.6 0.2 1.4 0.1 1.9-0.3 2.2-1.6 5.3-1.2 6.9 1 0.7 0.9 1 2 1 3.1 0 1.1 0.9 2 2 2.1 0.7 0 1.3-0.3 1.7-0.9 1-1.3 2.5-2.1 4.1-2.1z" fill="url(#ed99dfd9-1179-462a-b59f-fe23d3f6c530)" fill-rule="nonzero" stroke="none" stroke-width="1" stroke-linecap="butt" stroke-linejoin="miter" stroke-miterlimit="10" stroke-dasharray="" stroke-dashoffset="0" font-family="none" font-weight="none" font-size="none" text-anchor="none" style="mix-blend-mode: normal" data-fill-palette-color="tertiary"></path></g><g transform="matrix(1,0,0,1,56,131.81551728127346)"><svg viewBox="0 0 208 96.36896543745308" height="96.36896543745308" width="208"><g><svg viewBox="0 0 477.720630460448 221.33386021923658" height="96.36896543745308" width="208"><g transform="matrix(1,0,0,1,269.72063046044804,59.426259476843825)"><svg viewBox="0 0 207.99999999999997 102.48134126554893" height="102.48134126554893" width="207.99999999999997"><g id="textblocktransform"><svg viewBox="0 0 207.99999999999997 102.48134126554893" height="102.48134126554893" width="207.99999999999997" id="textblock"><g><svg viewBox="0 0 207.99999999999997 102.48134126554893" height="102.48134126554893" width="207.99999999999997"><g transform="matrix(1,0,0,1,0,0)"><svg width="207.99999999999997" viewBox="5.65 -41.5 92.44 45.54999999999999" height="102.48134126554893" data-palette-color="url(#e05fd115-36a2-4582-98ac-6b5dcb47b523)"></svg></g></svg></g></svg></g></svg></g><g><svg viewBox="0 0 221.33386021923658 221.33386021923658" height="221.33386021923658" width="221.33386021923658"><g><svg></svg></g><g id="icon-0"><svg viewBox="0 0 221.33386021923658 221.33386021923658" height="221.33386021923658" width="221.33386021923658"><g><path d="M0 110.667c0-61.12 49.547-110.667 110.667-110.667 61.12 0 110.667 49.547 110.667 110.667 0 61.12-49.547 110.667-110.667 110.667-61.12 0-110.667-49.547-110.667-110.667zM110.667 212.092c56.016 0 101.425-45.41 101.425-101.425 0-56.016-45.41-101.425-101.425-101.425-56.016 0-101.425 45.41-101.425 101.425 0 56.016 45.41 101.425 101.425 101.425z" data-fill-palette-color="tertiary" fill="url(#ed99dfd9-1179-462a-b59f-fe23d3f6c530)" stroke="transparent"></path></g><g transform="matrix(1,0,0,1,57.445702261604886,52.13210990840857)"><svg viewBox="0 0 106.44245569602681 117.06964040241944" height="117.06964040241944" width="106.44245569602681"><g><svg xmlns="http://www.w3.org/2000/svg" xmlns:xlink="http://www.w3.org/1999/xlink" version="1.0" x="0" y="0" viewBox="2 0 12.883127534945315 14.169375348513816" style="enable-background:new 0 0 16 16;" xml:space="preserve" height="117.06964040241944" width="106.44245569602681" class="icon-cg-0" data-fill-palette-color="accent" id="cg-0"></svg></g></svg></g></svg></g></svg></g></svg></g></svg></g></svg></g><defs></defs><mask id="edf48955-c381-4aef-aa9a-c67ed5de6927"><g id="SvgjsG1163"><svg viewBox="0 0 320 360" height="360" width="320"><g><svg></svg></g><g><svg viewBox="0 0 320 360" height="360" width="320"><g><path transform="translate(-17.30355,3.60951) scale(3.54253,3.54253)" d="M50 95v0c-2.2 0-4.1-1.4-4.7-3.5-0.3-1.1-1.5-1.7-2.5-1.4-0.4 0.1-0.8 0.4-1.1 0.8-1.6 2.2-4.6 2.8-6.9 1.2-1.4-0.9-2.2-2.5-2.1-4.2 0-1.1-0.9-2.1-2-2.1-0.5 0-0.9 0.1-1.3 0.4-2.2 1.6-5.3 1.2-6.9-1-1-1.3-1.3-3-0.7-4.6 0.4-1.1-0.2-2.2-1.3-2.6-0.4-0.1-0.9-0.1-1.3 0-2.6 0.9-5.4-0.5-6.3-3.1-0.5-1.5-0.3-3.3 0.7-4.6 0.7-0.9 0.5-2.2-0.4-2.8-0.4-0.3-0.8-0.4-1.3-0.4-2.7 0.1-5-2.1-5-4.8 0-1.7 0.8-3.2 2.1-4.2 0.9-0.6 1.1-1.9 0.5-2.8-0.3-0.4-0.6-0.6-1.1-0.8-2.6-0.8-4.1-3.6-3.3-6.2 0.5-1.6 1.7-2.8 3.3-3.3 1.1-0.3 1.7-1.5 1.4-2.5-0.1-0.4-0.4-0.8-0.8-1.1-2.2-1.6-2.8-4.6-1.2-6.9 0.9-1.4 2.5-2.2 4.2-2.1 1.1 0 2.1-0.9 2.1-2 0-0.5-0.1-0.9-0.4-1.3-1.6-2.2-1.2-5.3 1-6.9 1.3-1 3-1.3 4.6-0.7 1.1 0.4 2.2-0.2 2.6-1.3 0.1-0.4 0.1-0.9 0-1.3-0.9-2.6 0.5-5.4 3.1-6.3 1.5-0.5 3.3-0.3 4.6 0.7 0.9 0.7 2.2 0.5 2.8-0.4 0.3-0.4 0.4-0.8 0.4-1.3-0.1-2.7 2.1-5 4.8-5 1.7 0 3.2 0.8 4.2 2.1 0.6 0.9 1.9 1.1 2.8 0.5 0.4-0.3 0.6-0.6 0.8-1.1 0.8-2.6 3.6-4.1 6.2-3.3 1.6 0.5 2.8 1.7 3.3 3.3v0c0.2 0.7 0.8 1.3 1.6 1.4 0.8 0.1 1.5-0.2 2-0.8 1.6-2.2 4.6-2.8 6.9-1.2 1.4 0.9 2.2 2.5 2.1 4.2 0 1.1 0.9 2.1 2 2.1 0.5 0 0.9-0.1 1.3-0.4 2.2-1.6 5.3-1.2 6.9 1 1 1.3 1.3 3 0.7 4.6-0.4 1.1 0.2 2.2 1.3 2.6 0.4 0.1 0.9 0.1 1.3 0 2.6-0.9 5.4 0.5 6.3 3.1 0.5 1.5 0.3 3.3-0.7 4.6-0.7 0.9-0.5 2.2 0.4 2.8 0.4 0.3 0.8 0.4 1.3 0.4 2.7-0.1 5 2.1 5 4.8 0 1.7-0.8 3.2-2.1 4.2-0.7 0.4-1 1.2-0.9 2 0.1 0.8 0.7 1.4 1.4 1.6 2.6 0.8 4.1 3.6 3.3 6.2-0.5 1.6-1.7 2.8-3.3 3.3-1.1 0.3-1.7 1.5-1.4 2.5 0.1 0.4 0.4 0.8 0.8 1.1 2.2 1.6 2.8 4.6 1.2 6.9-0.9 1.4-2.5 2.2-4.2 2.1-0.8 0-1.5 0.4-1.9 1.1-0.4 0.7-0.3 1.5 0.2 2.2 1.6 2.2 1.2 5.3-1 6.9-1.3 1-3 1.3-4.6 0.7-1.1-0.4-2.2 0.2-2.6 1.3-0.1 0.4-0.1 0.9 0 1.3 0.9 2.6-0.5 5.4-3.1 6.3-1.5 0.5-3.3 0.3-4.6-0.7-0.9-0.7-2.2-0.5-2.8 0.4-0.3 0.4-0.4 0.8-0.4 1.3 0.1 2.7-2.1 5-4.8 5-1.7 0-3.2-0.8-4.2-2.1-0.4-0.6-1.2-1-2-0.8-0.8 0.1-1.4 0.7-1.6 1.4-0.6 2.1-2.5 3.5-4.7 3.5zM43.3 87.2c0.3 0 0.5 0 0.8 0.1 1.9 0.3 3.4 1.6 3.9 3.4 0.3 1.1 1.5 1.7 2.5 1.3 0.6-0.2 1.1-0.7 1.3-1.3 0.8-2.6 3.6-4.1 6.2-3.3 1 0.3 2 1 2.6 1.9 0.7 0.9 1.9 1.1 2.9 0.4 0.5-0.4 0.8-1 0.8-1.6-0.1-2.7 2.1-5 4.8-5 1.1 0 2.2 0.3 3.1 1 0.9 0.7 2.2 0.5 2.8-0.4 0.4-0.5 0.5-1.3 0.3-1.9-0.9-2.6 0.4-5.4 3-6.3 1.1-0.4 2.2-0.4 3.3 0 1.1 0.4 2.2-0.2 2.6-1.3 0.2-0.6 0.1-1.4-0.3-1.9-1.6-2.2-1.2-5.3 1-6.9 0.9-0.7 2-1 3.1-1 1.1 0 2-0.9 2.1-2 0-0.7-0.3-1.3-0.9-1.7-2.2-1.6-2.8-4.6-1.2-6.9 0.6-0.9 1.5-1.6 2.6-1.9 1.1-0.3 1.7-1.5 1.3-2.5-0.2-0.6-0.7-1.1-1.3-1.3-2.6-0.8-4.1-3.6-3.3-6.2 0.3-1 1-2 1.9-2.6 0.9-0.7 1.1-2 0.4-2.9-0.4-0.5-1-0.8-1.6-0.8-2.7 0.1-5-2.1-5-4.8 0-1.1 0.3-2.2 1-3.1 0.7-0.9 0.5-2.2-0.4-2.8-0.5-0.4-1.3-0.5-1.9-0.3-2.6 0.9-5.4-0.4-6.3-3-0.4-1.1-0.4-2.2 0-3.3 0.4-1.1-0.2-2.2-1.3-2.6-0.6-0.2-1.4-0.1-1.9 0.3-2.2 1.6-5.3 1.2-6.9-1-0.7-0.9-1-2-1-3.1 0-1.1-0.9-2-2.1-2-0.6 0-1.3 0.3-1.6 0.8-1.6 2.2-4.6 2.8-6.9 1.2-0.9-0.6-1.6-1.5-1.9-2.6v0c-0.3-1.1-1.5-1.7-2.5-1.3-0.6 0.2-1.1 0.7-1.3 1.3-0.8 2.6-3.6 4.1-6.2 3.3-1-0.3-2-1-2.6-1.9-0.7-0.9-1.9-1.1-2.9-0.4-0.5 0.4-0.8 1-0.8 1.6 0.1 2.7-2.1 5-4.8 5-1.1 0-2.2-0.3-3.1-1-0.9-0.7-2.2-0.5-2.8 0.4-0.4 0.5-0.5 1.3-0.3 1.9 0.9 2.6-0.4 5.4-3 6.3-1.1 0.4-2.2 0.4-3.3 0-1.1-0.4-2.2 0.2-2.6 1.3-0.2 0.6-0.1 1.4 0.3 1.9 1.6 2.2 1.2 5.3-1 6.9-0.9 0.7-2 1-3.1 1-1.1 0-2 0.9-2 2.1 0 0.6 0.3 1.3 0.8 1.6 2.2 1.6 2.8 4.6 1.2 6.9-0.6 0.9-1.5 1.6-2.6 1.9-1.1 0.3-1.7 1.5-1.3 2.5 0.2 0.6 0.7 1.1 1.3 1.3 2.6 0.8 4.1 3.6 3.3 6.2-0.3 1-1 2-1.9 2.6-0.9 0.7-1.1 1.9-0.4 2.9 0.4 0.5 1 0.8 1.6 0.8 2.7-0.1 5 2.1 5 4.8 0 1.1-0.3 2.2-1 3.1-0.7 0.9-0.5 2.2 0.4 2.8 0.5 0.4 1.3 0.5 1.9 0.3 2.6-0.9 5.4 0.4 6.3 3 0.4 1.1 0.4 2.2 0 3.3-0.4 1.1 0.2 2.2 1.3 2.6 0.6 0.2 1.4 0.1 1.9-0.3 2.2-1.6 5.3-1.2 6.9 1 0.7 0.9 1 2 1 3.1 0 1.1 0.9 2 2 2.1 0.7 0 1.3-0.3 1.7-0.9 1-1.3 2.5-2.1 4.1-2.1z" fill="black" fill-rule="nonzero" stroke="none" stroke-width="1" stroke-linecap="butt" stroke-linejoin="miter" stroke-miterlimit="10" stroke-dasharray="" stroke-dashoffset="0" font-family="none" font-weight="none" font-size="none" text-anchor="none" style="mix-blend-mode: normal"></path></g><g transform="matrix(1,0,0,1,56,131.81551728127346)"><svg viewBox="0 0 208 96.36896543745308" height="96.36896543745308" width="208"><g><svg viewBox="0 0 477.720630460448 221.33386021923658" height="96.36896543745308" width="208"><g transform="matrix(1,0,0,1,269.72063046044804,59.426259476843825)"><svg viewBox="0 0 207.99999999999997 102.48134126554893" height="102.48134126554893" width="207.99999999999997"><g id="SvgjsG1162"><svg viewBox="0 0 207.99999999999997 102.48134126554893" height="102.48134126554893" width="207.99999999999997" id="SvgjsSvg1161"><g><svg viewBox="0 0 207.99999999999997 102.48134126554893" height="102.48134126554893" width="207.99999999999997"><g transform="matrix(1,0,0,1,0,0)"><svg width="207.99999999999997" viewBox="5.65 -41.5 92.44 45.54999999999999" height="102.48134126554893" data-palette-color="url(#e05fd115-36a2-4582-98ac-6b5dcb47b523)"><path d="M26-20.85L26-20.85Q27.6-20.85 28.53-19.95 29.45-19.05 29.45-17.45L29.45-17.45Q29.45-17.05 29.4-16.63 29.35-16.2 29.2-15.9L29.2-15.9Q28.55-16 27.75-16.07 26.95-16.15 25.85-16.15L25.85-16.15Q23.6-16.15 21.35-15.75 19.1-15.35 17.05-15.1L17.05-15.1Q14.8-9.8 13.35-5.15 11.9-0.5 11.1 4.05L11.1 4.05Q9.4 3.65 8.1 2.6 6.8 1.55 5.65-0.35L5.65-0.35Q6-1.15 6.5-2.27 7-3.4 7.7-5.13 8.4-6.85 9.38-9.33 10.35-11.8 11.7-15.25L11.7-15.25Q9.6-15.95 8.95-17.7L8.95-17.7Q9.2-17.95 10.35-18.28 11.5-18.6 13.15-19L13.15-19Q13.9-20.95 14.45-22.48 15-24 15.45-25.38 15.9-26.75 16.28-28.08 16.65-29.4 16.95-30.9L16.95-30.9 16.7-30.9Q14.8-30.9 13.63-31.8 12.45-32.7 12.45-34.15L12.45-34.15Q12.45-34.55 12.58-35.1 12.7-35.65 12.9-36.05L12.9-36.05Q13.85-35.9 14.78-35.85 15.7-35.8 17.2-35.8L17.2-35.8Q20.35-35.8 23.1-35.98 25.85-36.15 28.08-36.35 30.3-36.55 31.9-36.73 33.5-36.9 34.35-36.9L34.35-36.9Q35.5-36.9 36.4-35.7 37.3-34.5 37.8-32.3L37.8-32.3Q36.2-32.45 35.23-32.5 34.25-32.55 33.5-32.55L33.5-32.55Q30.95-32.55 28.83-32.33 26.7-32.1 24.8-31.8L24.8-31.8Q24.5-31.35 24.13-30.65 23.75-29.95 23.15-28.68 22.55-27.4 21.63-25.35 20.7-23.3 19.3-20.15L19.3-20.15Q21.25-20.45 23.03-20.65 24.8-20.85 26-20.85ZM32.1-3.2L32.1-3.2Q32.1-5.4 33.15-9.38 34.2-13.35 36.1-18.65L36.1-18.65Q39.2-27.1 41.92-32.73 44.65-38.35 47.25-41.5L47.25-41.5Q47.85-41.4 48.72-41 49.6-40.6 50.45-40.13 51.3-39.65 51.97-39.15 52.65-38.65 52.85-38.35L52.85-38.35Q48.95-33.75 46-28.45 43.05-23.15 40.6-16.3L40.6-16.3Q38.5-10.4 37.4-5.68 36.3-0.95 36.3 2.2L36.3 2.2Q36.3 3.05 36.3 3.25 36.3 3.45 36.35 3.65L36.35 3.65Q35.65 3.55 35.15 3.3 34.65 3.05 34.5 2.7L34.5 2.7Q34.4 2.45 33.95 1.98 33.5 1.5 33.15 1.25L33.15 1.25Q32.7 0.95 32.4-0.33 32.1-1.6 32.1-3.2ZM49.64 1.75L49.64 1.75Q46.79 1.45 45.09-0.75 43.39-2.95 43.39-6.35L43.39-6.35Q43.39-8.35 43.99-10.5 44.59-12.65 45.69-14.68 46.79-16.7 48.29-18.5 49.79-20.3 51.54-21.6L51.54-21.6Q54.29-23.65 56.69-23.65L56.69-23.65Q58.3-22.8 59.84-20.1L59.84-20.1Q60.09-20.1 60.3-20.13 60.49-20.15 60.74-20.15L60.74-20.15Q63.39-20.15 63.39-15.45L63.39-15.45Q63.39-12.3 62.37-9.47 61.34-6.65 59.52-4.35 57.69-2.05 55.17-0.48 52.64 1.1 49.64 1.75ZM52.19-14L52.19-14Q51.34-12.85 50.59-11.5 49.84-10.15 49.29-8.78 48.74-7.4 48.44-6.13 48.14-4.85 48.14-3.85L48.14-3.85Q48.14-2.65 48.54-1.55 48.94-0.45 49.44-0.3L49.44-0.3Q51.69-0.8 53.57-2.18 55.44-3.55 56.82-5.6 58.19-7.65 58.97-10.25 59.74-12.85 59.74-15.8L59.74-15.8Q59.74-17.1 59.59-17.85 59.44-18.6 59.09-19.15L59.09-19.15Q56.89-18.5 55.17-17.05 53.44-15.6 52.19-14ZM66.24-2.05L66.24-2.05Q66.24-3.05 66.47-4.85 66.69-6.65 67.07-8.75 67.44-10.85 67.92-13.05 68.39-15.25 68.89-17L68.89-17Q69.54-19.35 70.92-20.63 72.29-21.9 74.34-21.9L74.34-21.9Q75.44-21.9 76.52-21.55 77.59-21.2 77.79-20.65L77.79-20.65Q76.34-19.45 75.47-17.68 74.59-15.9 74.07-13.88 73.54-11.85 73.27-9.73 72.99-7.6 72.69-5.75L72.69-5.75Q74.34-7.95 75.82-9.73 77.29-11.5 78.44-12.55L78.44-12.55Q79.99-14 80.54-14.98 81.09-15.95 81.49-17.1L81.49-17.1Q81.79-18 82.22-19.2 82.64-20.4 83.64-21.4L83.64-21.4Q83.84-21.45 84.49-21.45L84.49-21.45Q84.99-21.45 85.57-21.4 86.14-21.35 86.64-21.2 87.14-21.05 87.49-20.85 87.84-20.65 87.89-20.35L87.89-20.35Q87.09-19.3 86.39-17.07 85.69-14.85 85.14-12.2 84.59-9.55 84.14-6.93 83.69-4.3 83.34-2.5L83.34-2.5Q83.54-2.6 84.24-3.3 84.94-4 85.82-5.05 86.69-6.1 87.67-7.35 88.64-8.6 89.39-9.8L89.39-9.8Q90.34-11.25 90.97-12.53 91.59-13.8 92.07-15.25 92.54-16.7 92.94-18.48 93.34-20.25 93.79-22.7L93.79-22.7Q94.09-23.1 95.12-23.38 96.14-23.65 96.99-23.65L96.99-23.65Q97.74-23.65 98.09-23.4L98.09-23.4Q97.84-20.6 97.17-18.4 96.49-16.2 95.34-14.13 94.19-12.05 92.49-9.98 90.79-7.9 88.49-5.45L88.49-5.45Q87.54-4.45 86.42-3.25 85.29-2.05 84.22-1.03 83.14 0 82.22 0.7 81.29 1.4 80.79 1.4L80.79 1.4Q79.64 1.4 78.89 0.5 78.14-0.4 78.14-1.8L78.14-1.8Q78.14-3.25 78.27-4.33 78.39-5.4 78.69-6.6L78.69-6.6Q78.99-7.7 79.17-8.45 79.34-9.2 79.47-9.75 79.59-10.3 79.64-10.7 79.69-11.1 79.74-11.5L79.74-11.5Q79.34-11.3 78.69-10.68 78.04-10.05 77.34-9.22 76.64-8.4 75.94-7.55 75.24-6.7 74.79-6.1L74.79-6.1Q73.84-4.8 73.14-3.8 72.44-2.8 71.82-1.9 71.19-1 70.59-0.08 69.99 0.85 69.19 1.9L69.19 1.9Q67.59 1.4 66.92 0.4 66.24-0.6 66.24-2.05Z" opacity="1" transform="matrix(1,0,0,1,0,0)" fill="white" class="wordmark-text-0" id="SvgjsPath1160"></path></svg></g></svg></g></svg></g></svg></g><g><svg viewBox="0 0 221.33386021923658 221.33386021923658" height="221.33386021923658" width="221.33386021923658"><g><svg></svg></g><g id="SvgjsG1159"><svg viewBox="0 0 221.33386021923658 221.33386021923658" height="221.33386021923658" width="221.33386021923658"><g><path d="M0 110.667c0-61.12 49.547-110.667 110.667-110.667 61.12 0 110.667 49.547 110.667 110.667 0 61.12-49.547 110.667-110.667 110.667-61.12 0-110.667-49.547-110.667-110.667zM110.667 212.092c56.016 0 101.425-45.41 101.425-101.425 0-56.016-45.41-101.425-101.425-101.425-56.016 0-101.425 45.41-101.425 101.425 0 56.016 45.41 101.425 101.425 101.425z" fill="black" stroke="transparent"></path></g><g transform="matrix(1,0,0,1,57.445702261604886,52.13210990840857)"><svg viewBox="0 0 106.44245569602681 117.06964040241944" height="117.06964040241944" width="106.44245569602681"><g><svg xmlns="http://www.w3.org/2000/svg" xmlns:xlink="http://www.w3.org/1999/xlink" version="1.0" x="0" y="0" viewBox="2 0 12.883127534945315 14.169375348513816" style="enable-background:new 0 0 16 16;" xml:space="preserve" height="117.06964040241944" width="106.44245569602681" class="icon-cg-0" data-fill-palette-color="accent" id="SvgjsSvg1158"><path d="M10.216 14.068c-0.122 0.135-0.322 0.135-0.444 0.001l-2.769-3.084c-0.123-0.135-0.118-0.351 0.011-0.479l0.475-0.476c0.129-0.128 0.338-0.127 0.464 0.004L9.758 11.9c0.127 0.131 0.332 0.128 0.454-0.007l3.424-3.752c0.123-0.134 0.334-0.145 0.47-0.022l0.42 0.33c0.458 0.458 0.494 0.506 0 1L10.216 14.068z" fill="black"></path><path d="M7.5 2C7 2 7 3 7 3h1C8 3 8 2 7.5 2z" fill="black"></path><path d="M12 2h-2C9.914 1 9 0 7.5 0S5.086 1 5 2H3c0 0-1 0-1 1 0 0.815 0 9 0 10s1 1 1 1h5.628l-2.5-2.485c-0.42-0.461-0.191-1.052 0.25-1.492l0.75-0.747c0.217-0.217 0.444-0.248 0.75-0.248 0.309 0 0.785 0.279 1 0.502l1.145 1.25L13 7.571C13 7.571 13 4 13 3S12 2 12 2zM4.5 8H4c0 0-0.5 0-0.5-0.5S4 7 4 7h0.5C4.5 7 5 7 5 7.5S4.5 8 4.5 8zM4.5 6H4c0 0-0.5 0-0.5-0.5S4 5 4 5h0.5C4.5 5 5 5 5 5.5S4.5 6 4.5 6zM11 8H6.5C6.5 8 6 8 6 7.5S6.5 7 6.5 7H11c0 0 0.5 0 0.5 0.5S11 8 11 8zM11 6H6.5C6.5 6 6 6 6 5.5S6.5 5 6.5 5H11c0 0 0.5 0 0.5 0.5S11 6 11 6zM3 4c0 0 0-1 1-1s2 0 2 0 0-1.938 1.5-1.938S9.027 3 9 3c0 0 1 0 2 0s1 1 1 1H3z" fill="black"></path></svg></g></svg></g></svg></g></svg></g></svg></g></svg></g></svg></g><defs><mask></mask></defs></svg><rect width="320" height="360" fill="black" stroke="none" visibility="hidden"></rect></g></mask><linearGradient x1="0" x2="1" y1="0.578" y2="0.595" id="e05fd115-36a2-4582-98ac-6b5dcb47b523"><stop stop-color="#6ee2f5" offset="0"></stop><stop stop-color="#6454f0" offset="1"></stop></linearGradient><rect width="320.00014798658833" height="360" fill="url(#e05fd115-36a2-4582-98ac-6b5dcb47b523)" mask="url(#edf48955-c381-4aef-aa9a-c67ed5de6927)" data-fill-palette-color="primary"></rect><mask id="4a27511d-78c4-459f-86b2-5533fe9aaf3c"><g id="SvgjsG1186"><svg viewBox="0 0 320 360" height="360" width="320"><g><svg></svg></g><g><svg viewBox="0 0 320 360" height="360" width="320"><g><path transform="translate(-17.30355,3.60951) scale(3.54253,3.54253)" d="M50 95v0c-2.2 0-4.1-1.4-4.7-3.5-0.3-1.1-1.5-1.7-2.5-1.4-0.4 0.1-0.8 0.4-1.1 0.8-1.6 2.2-4.6 2.8-6.9 1.2-1.4-0.9-2.2-2.5-2.1-4.2 0-1.1-0.9-2.1-2-2.1-0.5 0-0.9 0.1-1.3 0.4-2.2 1.6-5.3 1.2-6.9-1-1-1.3-1.3-3-0.7-4.6 0.4-1.1-0.2-2.2-1.3-2.6-0.4-0.1-0.9-0.1-1.3 0-2.6 0.9-5.4-0.5-6.3-3.1-0.5-1.5-0.3-3.3 0.7-4.6 0.7-0.9 0.5-2.2-0.4-2.8-0.4-0.3-0.8-0.4-1.3-0.4-2.7 0.1-5-2.1-5-4.8 0-1.7 0.8-3.2 2.1-4.2 0.9-0.6 1.1-1.9 0.5-2.8-0.3-0.4-0.6-0.6-1.1-0.8-2.6-0.8-4.1-3.6-3.3-6.2 0.5-1.6 1.7-2.8 3.3-3.3 1.1-0.3 1.7-1.5 1.4-2.5-0.1-0.4-0.4-0.8-0.8-1.1-2.2-1.6-2.8-4.6-1.2-6.9 0.9-1.4 2.5-2.2 4.2-2.1 1.1 0 2.1-0.9 2.1-2 0-0.5-0.1-0.9-0.4-1.3-1.6-2.2-1.2-5.3 1-6.9 1.3-1 3-1.3 4.6-0.7 1.1 0.4 2.2-0.2 2.6-1.3 0.1-0.4 0.1-0.9 0-1.3-0.9-2.6 0.5-5.4 3.1-6.3 1.5-0.5 3.3-0.3 4.6 0.7 0.9 0.7 2.2 0.5 2.8-0.4 0.3-0.4 0.4-0.8 0.4-1.3-0.1-2.7 2.1-5 4.8-5 1.7 0 3.2 0.8 4.2 2.1 0.6 0.9 1.9 1.1 2.8 0.5 0.4-0.3 0.6-0.6 0.8-1.1 0.8-2.6 3.6-4.1 6.2-3.3 1.6 0.5 2.8 1.7 3.3 3.3v0c0.2 0.7 0.8 1.3 1.6 1.4 0.8 0.1 1.5-0.2 2-0.8 1.6-2.2 4.6-2.8 6.9-1.2 1.4 0.9 2.2 2.5 2.1 4.2 0 1.1 0.9 2.1 2 2.1 0.5 0 0.9-0.1 1.3-0.4 2.2-1.6 5.3-1.2 6.9 1 1 1.3 1.3 3 0.7 4.6-0.4 1.1 0.2 2.2 1.3 2.6 0.4 0.1 0.9 0.1 1.3 0 2.6-0.9 5.4 0.5 6.3 3.1 0.5 1.5 0.3 3.3-0.7 4.6-0.7 0.9-0.5 2.2 0.4 2.8 0.4 0.3 0.8 0.4 1.3 0.4 2.7-0.1 5 2.1 5 4.8 0 1.7-0.8 3.2-2.1 4.2-0.7 0.4-1 1.2-0.9 2 0.1 0.8 0.7 1.4 1.4 1.6 2.6 0.8 4.1 3.6 3.3 6.2-0.5 1.6-1.7 2.8-3.3 3.3-1.1 0.3-1.7 1.5-1.4 2.5 0.1 0.4 0.4 0.8 0.8 1.1 2.2 1.6 2.8 4.6 1.2 6.9-0.9 1.4-2.5 2.2-4.2 2.1-0.8 0-1.5 0.4-1.9 1.1-0.4 0.7-0.3 1.5 0.2 2.2 1.6 2.2 1.2 5.3-1 6.9-1.3 1-3 1.3-4.6 0.7-1.1-0.4-2.2 0.2-2.6 1.3-0.1 0.4-0.1 0.9 0 1.3 0.9 2.6-0.5 5.4-3.1 6.3-1.5 0.5-3.3 0.3-4.6-0.7-0.9-0.7-2.2-0.5-2.8 0.4-0.3 0.4-0.4 0.8-0.4 1.3 0.1 2.7-2.1 5-4.8 5-1.7 0-3.2-0.8-4.2-2.1-0.4-0.6-1.2-1-2-0.8-0.8 0.1-1.4 0.7-1.6 1.4-0.6 2.1-2.5 3.5-4.7 3.5zM43.3 87.2c0.3 0 0.5 0 0.8 0.1 1.9 0.3 3.4 1.6 3.9 3.4 0.3 1.1 1.5 1.7 2.5 1.3 0.6-0.2 1.1-0.7 1.3-1.3 0.8-2.6 3.6-4.1 6.2-3.3 1 0.3 2 1 2.6 1.9 0.7 0.9 1.9 1.1 2.9 0.4 0.5-0.4 0.8-1 0.8-1.6-0.1-2.7 2.1-5 4.8-5 1.1 0 2.2 0.3 3.1 1 0.9 0.7 2.2 0.5 2.8-0.4 0.4-0.5 0.5-1.3 0.3-1.9-0.9-2.6 0.4-5.4 3-6.3 1.1-0.4 2.2-0.4 3.3 0 1.1 0.4 2.2-0.2 2.6-1.3 0.2-0.6 0.1-1.4-0.3-1.9-1.6-2.2-1.2-5.3 1-6.9 0.9-0.7 2-1 3.1-1 1.1 0 2-0.9 2.1-2 0-0.7-0.3-1.3-0.9-1.7-2.2-1.6-2.8-4.6-1.2-6.9 0.6-0.9 1.5-1.6 2.6-1.9 1.1-0.3 1.7-1.5 1.3-2.5-0.2-0.6-0.7-1.1-1.3-1.3-2.6-0.8-4.1-3.6-3.3-6.2 0.3-1 1-2 1.9-2.6 0.9-0.7 1.1-2 0.4-2.9-0.4-0.5-1-0.8-1.6-0.8-2.7 0.1-5-2.1-5-4.8 0-1.1 0.3-2.2 1-3.1 0.7-0.9 0.5-2.2-0.4-2.8-0.5-0.4-1.3-0.5-1.9-0.3-2.6 0.9-5.4-0.4-6.3-3-0.4-1.1-0.4-2.2 0-3.3 0.4-1.1-0.2-2.2-1.3-2.6-0.6-0.2-1.4-0.1-1.9 0.3-2.2 1.6-5.3 1.2-6.9-1-0.7-0.9-1-2-1-3.1 0-1.1-0.9-2-2.1-2-0.6 0-1.3 0.3-1.6 0.8-1.6 2.2-4.6 2.8-6.9 1.2-0.9-0.6-1.6-1.5-1.9-2.6v0c-0.3-1.1-1.5-1.7-2.5-1.3-0.6 0.2-1.1 0.7-1.3 1.3-0.8 2.6-3.6 4.1-6.2 3.3-1-0.3-2-1-2.6-1.9-0.7-0.9-1.9-1.1-2.9-0.4-0.5 0.4-0.8 1-0.8 1.6 0.1 2.7-2.1 5-4.8 5-1.1 0-2.2-0.3-3.1-1-0.9-0.7-2.2-0.5-2.8 0.4-0.4 0.5-0.5 1.3-0.3 1.9 0.9 2.6-0.4 5.4-3 6.3-1.1 0.4-2.2 0.4-3.3 0-1.1-0.4-2.2 0.2-2.6 1.3-0.2 0.6-0.1 1.4 0.3 1.9 1.6 2.2 1.2 5.3-1 6.9-0.9 0.7-2 1-3.1 1-1.1 0-2 0.9-2 2.1 0 0.6 0.3 1.3 0.8 1.6 2.2 1.6 2.8 4.6 1.2 6.9-0.6 0.9-1.5 1.6-2.6 1.9-1.1 0.3-1.7 1.5-1.3 2.5 0.2 0.6 0.7 1.1 1.3 1.3 2.6 0.8 4.1 3.6 3.3 6.2-0.3 1-1 2-1.9 2.6-0.9 0.7-1.1 1.9-0.4 2.9 0.4 0.5 1 0.8 1.6 0.8 2.7-0.1 5 2.1 5 4.8 0 1.1-0.3 2.2-1 3.1-0.7 0.9-0.5 2.2 0.4 2.8 0.5 0.4 1.3 0.5 1.9 0.3 2.6-0.9 5.4 0.4 6.3 3 0.4 1.1 0.4 2.2 0 3.3-0.4 1.1 0.2 2.2 1.3 2.6 0.6 0.2 1.4 0.1 1.9-0.3 2.2-1.6 5.3-1.2 6.9 1 0.7 0.9 1 2 1 3.1 0 1.1 0.9 2 2 2.1 0.7 0 1.3-0.3 1.7-0.9 1-1.3 2.5-2.1 4.1-2.1z" fill="black" fill-rule="nonzero" stroke="none" stroke-width="1" stroke-linecap="butt" stroke-linejoin="miter" stroke-miterlimit="10" stroke-dasharray="" stroke-dashoffset="0" font-family="none" font-weight="none" font-size="none" text-anchor="none" style="mix-blend-mode: normal"></path></g><g transform="matrix(1,0,0,1,56,131.81551728127346)"><svg viewBox="0 0 208 96.36896543745308" height="96.36896543745308" width="208"><g><svg viewBox="0 0 477.720630460448 221.33386021923658" height="96.36896543745308" width="208"><g transform="matrix(1,0,0,1,269.72063046044804,59.426259476843825)"><svg viewBox="0 0 207.99999999999997 102.48134126554893" height="102.48134126554893" width="207.99999999999997"><g id="SvgjsG1185"><svg viewBox="0 0 207.99999999999997 102.48134126554893" height="102.48134126554893" width="207.99999999999997" id="SvgjsSvg1184"><g><svg viewBox="0 0 207.99999999999997 102.48134126554893" height="102.48134126554893" width="207.99999999999997"><g transform="matrix(1,0,0,1,0,0)"><svg width="207.99999999999997" viewBox="5.65 -41.5 92.44 45.54999999999999" height="102.48134126554893" data-palette-color="url(#e05fd115-36a2-4582-98ac-6b5dcb47b523)"></svg></g></svg></g></svg></g></svg></g><g><svg viewBox="0 0 221.33386021923658 221.33386021923658" height="221.33386021923658" width="221.33386021923658"><g><svg></svg></g><g id="SvgjsG1183"><svg viewBox="0 0 221.33386021923658 221.33386021923658" height="221.33386021923658" width="221.33386021923658"><g><path d="M0 110.667c0-61.12 49.547-110.667 110.667-110.667 61.12 0 110.667 49.547 110.667 110.667 0 61.12-49.547 110.667-110.667 110.667-61.12 0-110.667-49.547-110.667-110.667zM110.667 212.092c56.016 0 101.425-45.41 101.425-101.425 0-56.016-45.41-101.425-101.425-101.425-56.016 0-101.425 45.41-101.425 101.425 0 56.016 45.41 101.425 101.425 101.425z" fill="black" stroke="transparent"></path></g><g transform="matrix(1,0,0,1,57.445702261604886,52.13210990840857)"><svg viewBox="0 0 106.44245569602681 117.06964040241944" height="117.06964040241944" width="106.44245569602681"><g><svg xmlns="http://www.w3.org/2000/svg" xmlns:xlink="http://www.w3.org/1999/xlink" version="1.0" x="0" y="0" viewBox="2 0 12.883127534945315 14.169375348513816" style="enable-background:new 0 0 16 16;" xml:space="preserve" height="117.06964040241944" width="106.44245569602681" class="icon-cg-0" data-fill-palette-color="accent" id="SvgjsSvg1182"><path d="M10.216 14.068c-0.122 0.135-0.322 0.135-0.444 0.001l-2.769-3.084c-0.123-0.135-0.118-0.351 0.011-0.479l0.475-0.476c0.129-0.128 0.338-0.127 0.464 0.004L9.758 11.9c0.127 0.131 0.332 0.128 0.454-0.007l3.424-3.752c0.123-0.134 0.334-0.145 0.47-0.022l0.42 0.33c0.458 0.458 0.494 0.506 0 1L10.216 14.068z" fill="white"></path><path d="M7.5 2C7 2 7 3 7 3h1C8 3 8 2 7.5 2z" fill="white"></path><path d="M12 2h-2C9.914 1 9 0 7.5 0S5.086 1 5 2H3c0 0-1 0-1 1 0 0.815 0 9 0 10s1 1 1 1h5.628l-2.5-2.485c-0.42-0.461-0.191-1.052 0.25-1.492l0.75-0.747c0.217-0.217 0.444-0.248 0.75-0.248 0.309 0 0.785 0.279 1 0.502l1.145 1.25L13 7.571C13 7.571 13 4 13 3S12 2 12 2zM4.5 8H4c0 0-0.5 0-0.5-0.5S4 7 4 7h0.5C4.5 7 5 7 5 7.5S4.5 8 4.5 8zM4.5 6H4c0 0-0.5 0-0.5-0.5S4 5 4 5h0.5C4.5 5 5 5 5 5.5S4.5 6 4.5 6zM11 8H6.5C6.5 8 6 8 6 7.5S6.5 7 6.5 7H11c0 0 0.5 0 0.5 0.5S11 8 11 8zM11 6H6.5C6.5 6 6 6 6 5.5S6.5 5 6.5 5H11c0 0 0.5 0 0.5 0.5S11 6 11 6zM3 4c0 0 0-1 1-1s2 0 2 0 0-1.938 1.5-1.938S9.027 3 9 3c0 0 1 0 2 0s1 1 1 1H3z" fill="white"></path></svg></g></svg></g></svg></g></svg></g></svg></g></svg></g></svg></g><defs><mask></mask></defs><mask><g id="SvgjsG1181"><svg viewBox="0 0 320 360" height="360" width="320"><g><svg></svg></g><g><svg viewBox="0 0 320 360" height="360" width="320"><g><path transform="translate(-17.30355,3.60951) scale(3.54253,3.54253)" d="M50 95v0c-2.2 0-4.1-1.4-4.7-3.5-0.3-1.1-1.5-1.7-2.5-1.4-0.4 0.1-0.8 0.4-1.1 0.8-1.6 2.2-4.6 2.8-6.9 1.2-1.4-0.9-2.2-2.5-2.1-4.2 0-1.1-0.9-2.1-2-2.1-0.5 0-0.9 0.1-1.3 0.4-2.2 1.6-5.3 1.2-6.9-1-1-1.3-1.3-3-0.7-4.6 0.4-1.1-0.2-2.2-1.3-2.6-0.4-0.1-0.9-0.1-1.3 0-2.6 0.9-5.4-0.5-6.3-3.1-0.5-1.5-0.3-3.3 0.7-4.6 0.7-0.9 0.5-2.2-0.4-2.8-0.4-0.3-0.8-0.4-1.3-0.4-2.7 0.1-5-2.1-5-4.8 0-1.7 0.8-3.2 2.1-4.2 0.9-0.6 1.1-1.9 0.5-2.8-0.3-0.4-0.6-0.6-1.1-0.8-2.6-0.8-4.1-3.6-3.3-6.2 0.5-1.6 1.7-2.8 3.3-3.3 1.1-0.3 1.7-1.5 1.4-2.5-0.1-0.4-0.4-0.8-0.8-1.1-2.2-1.6-2.8-4.6-1.2-6.9 0.9-1.4 2.5-2.2 4.2-2.1 1.1 0 2.1-0.9 2.1-2 0-0.5-0.1-0.9-0.4-1.3-1.6-2.2-1.2-5.3 1-6.9 1.3-1 3-1.3 4.6-0.7 1.1 0.4 2.2-0.2 2.6-1.3 0.1-0.4 0.1-0.9 0-1.3-0.9-2.6 0.5-5.4 3.1-6.3 1.5-0.5 3.3-0.3 4.6 0.7 0.9 0.7 2.2 0.5 2.8-0.4 0.3-0.4 0.4-0.8 0.4-1.3-0.1-2.7 2.1-5 4.8-5 1.7 0 3.2 0.8 4.2 2.1 0.6 0.9 1.9 1.1 2.8 0.5 0.4-0.3 0.6-0.6 0.8-1.1 0.8-2.6 3.6-4.1 6.2-3.3 1.6 0.5 2.8 1.7 3.3 3.3v0c0.2 0.7 0.8 1.3 1.6 1.4 0.8 0.1 1.5-0.2 2-0.8 1.6-2.2 4.6-2.8 6.9-1.2 1.4 0.9 2.2 2.5 2.1 4.2 0 1.1 0.9 2.1 2 2.1 0.5 0 0.9-0.1 1.3-0.4 2.2-1.6 5.3-1.2 6.9 1 1 1.3 1.3 3 0.7 4.6-0.4 1.1 0.2 2.2 1.3 2.6 0.4 0.1 0.9 0.1 1.3 0 2.6-0.9 5.4 0.5 6.3 3.1 0.5 1.5 0.3 3.3-0.7 4.6-0.7 0.9-0.5 2.2 0.4 2.8 0.4 0.3 0.8 0.4 1.3 0.4 2.7-0.1 5 2.1 5 4.8 0 1.7-0.8 3.2-2.1 4.2-0.7 0.4-1 1.2-0.9 2 0.1 0.8 0.7 1.4 1.4 1.6 2.6 0.8 4.1 3.6 3.3 6.2-0.5 1.6-1.7 2.8-3.3 3.3-1.1 0.3-1.7 1.5-1.4 2.5 0.1 0.4 0.4 0.8 0.8 1.1 2.2 1.6 2.8 4.6 1.2 6.9-0.9 1.4-2.5 2.2-4.2 2.1-0.8 0-1.5 0.4-1.9 1.1-0.4 0.7-0.3 1.5 0.2 2.2 1.6 2.2 1.2 5.3-1 6.9-1.3 1-3 1.3-4.6 0.7-1.1-0.4-2.2 0.2-2.6 1.3-0.1 0.4-0.1 0.9 0 1.3 0.9 2.6-0.5 5.4-3.1 6.3-1.5 0.5-3.3 0.3-4.6-0.7-0.9-0.7-2.2-0.5-2.8 0.4-0.3 0.4-0.4 0.8-0.4 1.3 0.1 2.7-2.1 5-4.8 5-1.7 0-3.2-0.8-4.2-2.1-0.4-0.6-1.2-1-2-0.8-0.8 0.1-1.4 0.7-1.6 1.4-0.6 2.1-2.5 3.5-4.7 3.5zM43.3 87.2c0.3 0 0.5 0 0.8 0.1 1.9 0.3 3.4 1.6 3.9 3.4 0.3 1.1 1.5 1.7 2.5 1.3 0.6-0.2 1.1-0.7 1.3-1.3 0.8-2.6 3.6-4.1 6.2-3.3 1 0.3 2 1 2.6 1.9 0.7 0.9 1.9 1.1 2.9 0.4 0.5-0.4 0.8-1 0.8-1.6-0.1-2.7 2.1-5 4.8-5 1.1 0 2.2 0.3 3.1 1 0.9 0.7 2.2 0.5 2.8-0.4 0.4-0.5 0.5-1.3 0.3-1.9-0.9-2.6 0.4-5.4 3-6.3 1.1-0.4 2.2-0.4 3.3 0 1.1 0.4 2.2-0.2 2.6-1.3 0.2-0.6 0.1-1.4-0.3-1.9-1.6-2.2-1.2-5.3 1-6.9 0.9-0.7 2-1 3.1-1 1.1 0 2-0.9 2.1-2 0-0.7-0.3-1.3-0.9-1.7-2.2-1.6-2.8-4.6-1.2-6.9 0.6-0.9 1.5-1.6 2.6-1.9 1.1-0.3 1.7-1.5 1.3-2.5-0.2-0.6-0.7-1.1-1.3-1.3-2.6-0.8-4.1-3.6-3.3-6.2 0.3-1 1-2 1.9-2.6 0.9-0.7 1.1-2 0.4-2.9-0.4-0.5-1-0.8-1.6-0.8-2.7 0.1-5-2.1-5-4.8 0-1.1 0.3-2.2 1-3.1 0.7-0.9 0.5-2.2-0.4-2.8-0.5-0.4-1.3-0.5-1.9-0.3-2.6 0.9-5.4-0.4-6.3-3-0.4-1.1-0.4-2.2 0-3.3 0.4-1.1-0.2-2.2-1.3-2.6-0.6-0.2-1.4-0.1-1.9 0.3-2.2 1.6-5.3 1.2-6.9-1-0.7-0.9-1-2-1-3.1 0-1.1-0.9-2-2.1-2-0.6 0-1.3 0.3-1.6 0.8-1.6 2.2-4.6 2.8-6.9 1.2-0.9-0.6-1.6-1.5-1.9-2.6v0c-0.3-1.1-1.5-1.7-2.5-1.3-0.6 0.2-1.1 0.7-1.3 1.3-0.8 2.6-3.6 4.1-6.2 3.3-1-0.3-2-1-2.6-1.9-0.7-0.9-1.9-1.1-2.9-0.4-0.5 0.4-0.8 1-0.8 1.6 0.1 2.7-2.1 5-4.8 5-1.1 0-2.2-0.3-3.1-1-0.9-0.7-2.2-0.5-2.8 0.4-0.4 0.5-0.5 1.3-0.3 1.9 0.9 2.6-0.4 5.4-3 6.3-1.1 0.4-2.2 0.4-3.3 0-1.1-0.4-2.2 0.2-2.6 1.3-0.2 0.6-0.1 1.4 0.3 1.9 1.6 2.2 1.2 5.3-1 6.9-0.9 0.7-2 1-3.1 1-1.1 0-2 0.9-2 2.1 0 0.6 0.3 1.3 0.8 1.6 2.2 1.6 2.8 4.6 1.2 6.9-0.6 0.9-1.5 1.6-2.6 1.9-1.1 0.3-1.7 1.5-1.3 2.5 0.2 0.6 0.7 1.1 1.3 1.3 2.6 0.8 4.1 3.6 3.3 6.2-0.3 1-1 2-1.9 2.6-0.9 0.7-1.1 1.9-0.4 2.9 0.4 0.5 1 0.8 1.6 0.8 2.7-0.1 5 2.1 5 4.8 0 1.1-0.3 2.2-1 3.1-0.7 0.9-0.5 2.2 0.4 2.8 0.5 0.4 1.3 0.5 1.9 0.3 2.6-0.9 5.4 0.4 6.3 3 0.4 1.1 0.4 2.2 0 3.3-0.4 1.1 0.2 2.2 1.3 2.6 0.6 0.2 1.4 0.1 1.9-0.3 2.2-1.6 5.3-1.2 6.9 1 0.7 0.9 1 2 1 3.1 0 1.1 0.9 2 2 2.1 0.7 0 1.3-0.3 1.7-0.9 1-1.3 2.5-2.1 4.1-2.1z" fill="black" fill-rule="nonzero" stroke="none" stroke-width="1" stroke-linecap="butt" stroke-linejoin="miter" stroke-miterlimit="10" stroke-dasharray="" stroke-dashoffset="0" font-family="none" font-weight="none" font-size="none" text-anchor="none" style="mix-blend-mode: normal"></path></g><g transform="matrix(1,0,0,1,56,131.81551728127346)"><svg viewBox="0 0 208 96.36896543745308" height="96.36896543745308" width="208"><g><svg viewBox="0 0 477.720630460448 221.33386021923658" height="96.36896543745308" width="208"><g transform="matrix(1,0,0,1,269.72063046044804,59.426259476843825)"><svg viewBox="0 0 207.99999999999997 102.48134126554893" height="102.48134126554893" width="207.99999999999997"><g id="SvgjsG1180"><svg viewBox="0 0 207.99999999999997 102.48134126554893" height="102.48134126554893" width="207.99999999999997" id="SvgjsSvg1179"><g><svg viewBox="0 0 207.99999999999997 102.48134126554893" height="102.48134126554893" width="207.99999999999997"><g transform="matrix(1,0,0,1,0,0)"><svg width="207.99999999999997" viewBox="5.65 -41.5 92.44 45.54999999999999" height="102.48134126554893" data-palette-color="url(#e05fd115-36a2-4582-98ac-6b5dcb47b523)"><path d="M26-20.85L26-20.85Q27.6-20.85 28.53-19.95 29.45-19.05 29.45-17.45L29.45-17.45Q29.45-17.05 29.4-16.63 29.35-16.2 29.2-15.9L29.2-15.9Q28.55-16 27.75-16.07 26.95-16.15 25.85-16.15L25.85-16.15Q23.6-16.15 21.35-15.75 19.1-15.35 17.05-15.1L17.05-15.1Q14.8-9.8 13.35-5.15 11.9-0.5 11.1 4.05L11.1 4.05Q9.4 3.65 8.1 2.6 6.8 1.55 5.65-0.35L5.65-0.35Q6-1.15 6.5-2.27 7-3.4 7.7-5.13 8.4-6.85 9.38-9.33 10.35-11.8 11.7-15.25L11.7-15.25Q9.6-15.95 8.95-17.7L8.95-17.7Q9.2-17.95 10.35-18.28 11.5-18.6 13.15-19L13.15-19Q13.9-20.95 14.45-22.48 15-24 15.45-25.38 15.9-26.75 16.28-28.08 16.65-29.4 16.95-30.9L16.95-30.9 16.7-30.9Q14.8-30.9 13.63-31.8 12.45-32.7 12.45-34.15L12.45-34.15Q12.45-34.55 12.58-35.1 12.7-35.65 12.9-36.05L12.9-36.05Q13.85-35.9 14.78-35.85 15.7-35.8 17.2-35.8L17.2-35.8Q20.35-35.8 23.1-35.98 25.85-36.15 28.08-36.35 30.3-36.55 31.9-36.73 33.5-36.9 34.35-36.9L34.35-36.9Q35.5-36.9 36.4-35.7 37.3-34.5 37.8-32.3L37.8-32.3Q36.2-32.45 35.23-32.5 34.25-32.55 33.5-32.55L33.5-32.55Q30.95-32.55 28.83-32.33 26.7-32.1 24.8-31.8L24.8-31.8Q24.5-31.35 24.13-30.65 23.75-29.95 23.15-28.68 22.55-27.4 21.63-25.35 20.7-23.3 19.3-20.15L19.3-20.15Q21.25-20.45 23.03-20.65 24.8-20.85 26-20.85ZM32.1-3.2L32.1-3.2Q32.1-5.4 33.15-9.38 34.2-13.35 36.1-18.65L36.1-18.65Q39.2-27.1 41.92-32.73 44.65-38.35 47.25-41.5L47.25-41.5Q47.85-41.4 48.72-41 49.6-40.6 50.45-40.13 51.3-39.65 51.97-39.15 52.65-38.65 52.85-38.35L52.85-38.35Q48.95-33.75 46-28.45 43.05-23.15 40.6-16.3L40.6-16.3Q38.5-10.4 37.4-5.68 36.3-0.95 36.3 2.2L36.3 2.2Q36.3 3.05 36.3 3.25 36.3 3.45 36.35 3.65L36.35 3.65Q35.65 3.55 35.15 3.3 34.65 3.05 34.5 2.7L34.5 2.7Q34.4 2.45 33.95 1.98 33.5 1.5 33.15 1.25L33.15 1.25Q32.7 0.95 32.4-0.33 32.1-1.6 32.1-3.2ZM49.64 1.75L49.64 1.75Q46.79 1.45 45.09-0.75 43.39-2.95 43.39-6.35L43.39-6.35Q43.39-8.35 43.99-10.5 44.59-12.65 45.69-14.68 46.79-16.7 48.29-18.5 49.79-20.3 51.54-21.6L51.54-21.6Q54.29-23.65 56.69-23.65L56.69-23.65Q58.3-22.8 59.84-20.1L59.84-20.1Q60.09-20.1 60.3-20.13 60.49-20.15 60.74-20.15L60.74-20.15Q63.39-20.15 63.39-15.45L63.39-15.45Q63.39-12.3 62.37-9.47 61.34-6.65 59.52-4.35 57.69-2.05 55.17-0.48 52.64 1.1 49.64 1.75ZM52.19-14L52.19-14Q51.34-12.85 50.59-11.5 49.84-10.15 49.29-8.78 48.74-7.4 48.44-6.13 48.14-4.85 48.14-3.85L48.14-3.85Q48.14-2.65 48.54-1.55 48.94-0.45 49.44-0.3L49.44-0.3Q51.69-0.8 53.57-2.18 55.44-3.55 56.82-5.6 58.19-7.65 58.97-10.25 59.74-12.85 59.74-15.8L59.74-15.8Q59.74-17.1 59.59-17.85 59.44-18.6 59.09-19.15L59.09-19.15Q56.89-18.5 55.17-17.05 53.44-15.6 52.19-14ZM66.24-2.05L66.24-2.05Q66.24-3.05 66.47-4.85 66.69-6.65 67.07-8.75 67.44-10.85 67.92-13.05 68.39-15.25 68.89-17L68.89-17Q69.54-19.35 70.92-20.63 72.29-21.9 74.34-21.9L74.34-21.9Q75.44-21.9 76.52-21.55 77.59-21.2 77.79-20.65L77.79-20.65Q76.34-19.45 75.47-17.68 74.59-15.9 74.07-13.88 73.54-11.85 73.27-9.73 72.99-7.6 72.69-5.75L72.69-5.75Q74.34-7.95 75.82-9.73 77.29-11.5 78.44-12.55L78.44-12.55Q79.99-14 80.54-14.98 81.09-15.95 81.49-17.1L81.49-17.1Q81.79-18 82.22-19.2 82.64-20.4 83.64-21.4L83.64-21.4Q83.84-21.45 84.49-21.45L84.49-21.45Q84.99-21.45 85.57-21.4 86.14-21.35 86.64-21.2 87.14-21.05 87.49-20.85 87.84-20.65 87.89-20.35L87.89-20.35Q87.09-19.3 86.39-17.07 85.69-14.85 85.14-12.2 84.59-9.55 84.14-6.93 83.69-4.3 83.34-2.5L83.34-2.5Q83.54-2.6 84.24-3.3 84.94-4 85.82-5.05 86.69-6.1 87.67-7.35 88.64-8.6 89.39-9.8L89.39-9.8Q90.34-11.25 90.97-12.53 91.59-13.8 92.07-15.25 92.54-16.7 92.94-18.48 93.34-20.25 93.79-22.7L93.79-22.7Q94.09-23.1 95.12-23.38 96.14-23.65 96.99-23.65L96.99-23.65Q97.74-23.65 98.09-23.4L98.09-23.4Q97.84-20.6 97.17-18.4 96.49-16.2 95.34-14.13 94.19-12.05 92.49-9.98 90.79-7.9 88.49-5.45L88.49-5.45Q87.54-4.45 86.42-3.25 85.29-2.05 84.22-1.03 83.14 0 82.22 0.7 81.29 1.4 80.79 1.4L80.79 1.4Q79.64 1.4 78.89 0.5 78.14-0.4 78.14-1.8L78.14-1.8Q78.14-3.25 78.27-4.33 78.39-5.4 78.69-6.6L78.69-6.6Q78.99-7.7 79.17-8.45 79.34-9.2 79.47-9.75 79.59-10.3 79.64-10.7 79.69-11.1 79.74-11.5L79.74-11.5Q79.34-11.3 78.69-10.68 78.04-10.05 77.34-9.22 76.64-8.4 75.94-7.55 75.24-6.7 74.79-6.1L74.79-6.1Q73.84-4.8 73.14-3.8 72.44-2.8 71.82-1.9 71.19-1 70.59-0.08 69.99 0.85 69.19 1.9L69.19 1.9Q67.59 1.4 66.92 0.4 66.24-0.6 66.24-2.05Z" opacity="1" transform="matrix(1,0,0,1,0,0)" fill="black" class="wordmark-text-0" id="SvgjsPath1178"></path></svg></g></svg></g></svg></g></svg></g><g><svg viewBox="0 0 221.33386021923658 221.33386021923658" height="221.33386021923658" width="221.33386021923658"><g><svg></svg></g><g id="SvgjsG1177"><svg viewBox="0 0 221.33386021923658 221.33386021923658" height="221.33386021923658" width="221.33386021923658"><g><path d="M0 110.667c0-61.12 49.547-110.667 110.667-110.667 61.12 0 110.667 49.547 110.667 110.667 0 61.12-49.547 110.667-110.667 110.667-61.12 0-110.667-49.547-110.667-110.667zM110.667 212.092c56.016 0 101.425-45.41 101.425-101.425 0-56.016-45.41-101.425-101.425-101.425-56.016 0-101.425 45.41-101.425 101.425 0 56.016 45.41 101.425 101.425 101.425z" fill="black" stroke="transparent"></path></g><g transform="matrix(1,0,0,1,57.445702261604886,52.13210990840857)"><svg viewBox="0 0 106.44245569602681 117.06964040241944" height="117.06964040241944" width="106.44245569602681"><g><svg xmlns="http://www.w3.org/2000/svg" xmlns:xlink="http://www.w3.org/1999/xlink" version="1.0" x="0" y="0" viewBox="2 0 12.883127534945315 14.169375348513816" style="enable-background:new 0 0 16 16;" xml:space="preserve" height="117.06964040241944" width="106.44245569602681" class="icon-cg-0" data-fill-palette-color="accent" id="SvgjsSvg1176"><path d="M10.216 14.068c-0.122 0.135-0.322 0.135-0.444 0.001l-2.769-3.084c-0.123-0.135-0.118-0.351 0.011-0.479l0.475-0.476c0.129-0.128 0.338-0.127 0.464 0.004L9.758 11.9c0.127 0.131 0.332 0.128 0.454-0.007l3.424-3.752c0.123-0.134 0.334-0.145 0.47-0.022l0.42 0.33c0.458 0.458 0.494 0.506 0 1L10.216 14.068z" fill="black"></path><path d="M7.5 2C7 2 7 3 7 3h1C8 3 8 2 7.5 2z" fill="black"></path><path d="M12 2h-2C9.914 1 9 0 7.5 0S5.086 1 5 2H3c0 0-1 0-1 1 0 0.815 0 9 0 10s1 1 1 1h5.628l-2.5-2.485c-0.42-0.461-0.191-1.052 0.25-1.492l0.75-0.747c0.217-0.217 0.444-0.248 0.75-0.248 0.309 0 0.785 0.279 1 0.502l1.145 1.25L13 7.571C13 7.571 13 4 13 3S12 2 12 2zM4.5 8H4c0 0-0.5 0-0.5-0.5S4 7 4 7h0.5C4.5 7 5 7 5 7.5S4.5 8 4.5 8zM4.5 6H4c0 0-0.5 0-0.5-0.5S4 5 4 5h0.5C4.5 5 5 5 5 5.5S4.5 6 4.5 6zM11 8H6.5C6.5 8 6 8 6 7.5S6.5 7 6.5 7H11c0 0 0.5 0 0.5 0.5S11 8 11 8zM11 6H6.5C6.5 6 6 6 6 5.5S6.5 5 6.5 5H11c0 0 0.5 0 0.5 0.5S11 6 11 6zM3 4c0 0 0-1 1-1s2 0 2 0 0-1.938 1.5-1.938S9.027 3 9 3c0 0 1 0 2 0s1 1 1 1H3z" fill="black"></path></svg></g></svg></g></svg></g></svg></g></svg></g></svg></g></svg></g><defs><mask></mask></defs></svg><rect width="320" height="360" fill="black" stroke="none" visibility="hidden"></rect></g></mask></svg><rect width="320" height="360" fill="black" stroke="none" visibility="hidden"></rect></g></mask><linearGradient x1="0" x2="1" y1="0.578" y2="0.595" id="dce0c268-e3eb-4dcb-bb91-367bbe322d68"><stop stop-color="#6ee2f5" offset="0"></stop><stop stop-color="#6454f0" offset="1"></stop></linearGradient><rect width="320.00014798658833" height="360" fill="url(#dce0c268-e3eb-4dcb-bb91-367bbe322d68)" mask="url(#4a27511d-78c4-459f-86b2-5533fe9aaf3c)" data-fill-palette-color="accent"></rect><mask id="f690b176-5413-49a2-9db2-47db76957b6e"><g id="SvgjsG1208"><svg viewBox="0 0 320 360" height="360" width="320"><g><svg></svg></g><g><svg viewBox="0 0 320 360" height="360" width="320"><g><path transform="translate(-17.30355,3.60951) scale(3.54253,3.54253)" d="M50 95v0c-2.2 0-4.1-1.4-4.7-3.5-0.3-1.1-1.5-1.7-2.5-1.4-0.4 0.1-0.8 0.4-1.1 0.8-1.6 2.2-4.6 2.8-6.9 1.2-1.4-0.9-2.2-2.5-2.1-4.2 0-1.1-0.9-2.1-2-2.1-0.5 0-0.9 0.1-1.3 0.4-2.2 1.6-5.3 1.2-6.9-1-1-1.3-1.3-3-0.7-4.6 0.4-1.1-0.2-2.2-1.3-2.6-0.4-0.1-0.9-0.1-1.3 0-2.6 0.9-5.4-0.5-6.3-3.1-0.5-1.5-0.3-3.3 0.7-4.6 0.7-0.9 0.5-2.2-0.4-2.8-0.4-0.3-0.8-0.4-1.3-0.4-2.7 0.1-5-2.1-5-4.8 0-1.7 0.8-3.2 2.1-4.2 0.9-0.6 1.1-1.9 0.5-2.8-0.3-0.4-0.6-0.6-1.1-0.8-2.6-0.8-4.1-3.6-3.3-6.2 0.5-1.6 1.7-2.8 3.3-3.3 1.1-0.3 1.7-1.5 1.4-2.5-0.1-0.4-0.4-0.8-0.8-1.1-2.2-1.6-2.8-4.6-1.2-6.9 0.9-1.4 2.5-2.2 4.2-2.1 1.1 0 2.1-0.9 2.1-2 0-0.5-0.1-0.9-0.4-1.3-1.6-2.2-1.2-5.3 1-6.9 1.3-1 3-1.3 4.6-0.7 1.1 0.4 2.2-0.2 2.6-1.3 0.1-0.4 0.1-0.9 0-1.3-0.9-2.6 0.5-5.4 3.1-6.3 1.5-0.5 3.3-0.3 4.6 0.7 0.9 0.7 2.2 0.5 2.8-0.4 0.3-0.4 0.4-0.8 0.4-1.3-0.1-2.7 2.1-5 4.8-5 1.7 0 3.2 0.8 4.2 2.1 0.6 0.9 1.9 1.1 2.8 0.5 0.4-0.3 0.6-0.6 0.8-1.1 0.8-2.6 3.6-4.1 6.2-3.3 1.6 0.5 2.8 1.7 3.3 3.3v0c0.2 0.7 0.8 1.3 1.6 1.4 0.8 0.1 1.5-0.2 2-0.8 1.6-2.2 4.6-2.8 6.9-1.2 1.4 0.9 2.2 2.5 2.1 4.2 0 1.1 0.9 2.1 2 2.1 0.5 0 0.9-0.1 1.3-0.4 2.2-1.6 5.3-1.2 6.9 1 1 1.3 1.3 3 0.7 4.6-0.4 1.1 0.2 2.2 1.3 2.6 0.4 0.1 0.9 0.1 1.3 0 2.6-0.9 5.4 0.5 6.3 3.1 0.5 1.5 0.3 3.3-0.7 4.6-0.7 0.9-0.5 2.2 0.4 2.8 0.4 0.3 0.8 0.4 1.3 0.4 2.7-0.1 5 2.1 5 4.8 0 1.7-0.8 3.2-2.1 4.2-0.7 0.4-1 1.2-0.9 2 0.1 0.8 0.7 1.4 1.4 1.6 2.6 0.8 4.1 3.6 3.3 6.2-0.5 1.6-1.7 2.8-3.3 3.3-1.1 0.3-1.7 1.5-1.4 2.5 0.1 0.4 0.4 0.8 0.8 1.1 2.2 1.6 2.8 4.6 1.2 6.9-0.9 1.4-2.5 2.2-4.2 2.1-0.8 0-1.5 0.4-1.9 1.1-0.4 0.7-0.3 1.5 0.2 2.2 1.6 2.2 1.2 5.3-1 6.9-1.3 1-3 1.3-4.6 0.7-1.1-0.4-2.2 0.2-2.6 1.3-0.1 0.4-0.1 0.9 0 1.3 0.9 2.6-0.5 5.4-3.1 6.3-1.5 0.5-3.3 0.3-4.6-0.7-0.9-0.7-2.2-0.5-2.8 0.4-0.3 0.4-0.4 0.8-0.4 1.3 0.1 2.7-2.1 5-4.8 5-1.7 0-3.2-0.8-4.2-2.1-0.4-0.6-1.2-1-2-0.8-0.8 0.1-1.4 0.7-1.6 1.4-0.6 2.1-2.5 3.5-4.7 3.5zM43.3 87.2c0.3 0 0.5 0 0.8 0.1 1.9 0.3 3.4 1.6 3.9 3.4 0.3 1.1 1.5 1.7 2.5 1.3 0.6-0.2 1.1-0.7 1.3-1.3 0.8-2.6 3.6-4.1 6.2-3.3 1 0.3 2 1 2.6 1.9 0.7 0.9 1.9 1.1 2.9 0.4 0.5-0.4 0.8-1 0.8-1.6-0.1-2.7 2.1-5 4.8-5 1.1 0 2.2 0.3 3.1 1 0.9 0.7 2.2 0.5 2.8-0.4 0.4-0.5 0.5-1.3 0.3-1.9-0.9-2.6 0.4-5.4 3-6.3 1.1-0.4 2.2-0.4 3.3 0 1.1 0.4 2.2-0.2 2.6-1.3 0.2-0.6 0.1-1.4-0.3-1.9-1.6-2.2-1.2-5.3 1-6.9 0.9-0.7 2-1 3.1-1 1.1 0 2-0.9 2.1-2 0-0.7-0.3-1.3-0.9-1.7-2.2-1.6-2.8-4.6-1.2-6.9 0.6-0.9 1.5-1.6 2.6-1.9 1.1-0.3 1.7-1.5 1.3-2.5-0.2-0.6-0.7-1.1-1.3-1.3-2.6-0.8-4.1-3.6-3.3-6.2 0.3-1 1-2 1.9-2.6 0.9-0.7 1.1-2 0.4-2.9-0.4-0.5-1-0.8-1.6-0.8-2.7 0.1-5-2.1-5-4.8 0-1.1 0.3-2.2 1-3.1 0.7-0.9 0.5-2.2-0.4-2.8-0.5-0.4-1.3-0.5-1.9-0.3-2.6 0.9-5.4-0.4-6.3-3-0.4-1.1-0.4-2.2 0-3.3 0.4-1.1-0.2-2.2-1.3-2.6-0.6-0.2-1.4-0.1-1.9 0.3-2.2 1.6-5.3 1.2-6.9-1-0.7-0.9-1-2-1-3.1 0-1.1-0.9-2-2.1-2-0.6 0-1.3 0.3-1.6 0.8-1.6 2.2-4.6 2.8-6.9 1.2-0.9-0.6-1.6-1.5-1.9-2.6v0c-0.3-1.1-1.5-1.7-2.5-1.3-0.6 0.2-1.1 0.7-1.3 1.3-0.8 2.6-3.6 4.1-6.2 3.3-1-0.3-2-1-2.6-1.9-0.7-0.9-1.9-1.1-2.9-0.4-0.5 0.4-0.8 1-0.8 1.6 0.1 2.7-2.1 5-4.8 5-1.1 0-2.2-0.3-3.1-1-0.9-0.7-2.2-0.5-2.8 0.4-0.4 0.5-0.5 1.3-0.3 1.9 0.9 2.6-0.4 5.4-3 6.3-1.1 0.4-2.2 0.4-3.3 0-1.1-0.4-2.2 0.2-2.6 1.3-0.2 0.6-0.1 1.4 0.3 1.9 1.6 2.2 1.2 5.3-1 6.9-0.9 0.7-2 1-3.1 1-1.1 0-2 0.9-2 2.1 0 0.6 0.3 1.3 0.8 1.6 2.2 1.6 2.8 4.6 1.2 6.9-0.6 0.9-1.5 1.6-2.6 1.9-1.1 0.3-1.7 1.5-1.3 2.5 0.2 0.6 0.7 1.1 1.3 1.3 2.6 0.8 4.1 3.6 3.3 6.2-0.3 1-1 2-1.9 2.6-0.9 0.7-1.1 1.9-0.4 2.9 0.4 0.5 1 0.8 1.6 0.8 2.7-0.1 5 2.1 5 4.8 0 1.1-0.3 2.2-1 3.1-0.7 0.9-0.5 2.2 0.4 2.8 0.5 0.4 1.3 0.5 1.9 0.3 2.6-0.9 5.4 0.4 6.3 3 0.4 1.1 0.4 2.2 0 3.3-0.4 1.1 0.2 2.2 1.3 2.6 0.6 0.2 1.4 0.1 1.9-0.3 2.2-1.6 5.3-1.2 6.9 1 0.7 0.9 1 2 1 3.1 0 1.1 0.9 2 2 2.1 0.7 0 1.3-0.3 1.7-0.9 1-1.3 2.5-2.1 4.1-2.1z" fill="white" fill-rule="nonzero" stroke="none" stroke-width="1" stroke-linecap="butt" stroke-linejoin="miter" stroke-miterlimit="10" stroke-dasharray="" stroke-dashoffset="0" font-family="none" font-weight="none" font-size="none" text-anchor="none" style="mix-blend-mode: normal"></path></g><g transform="matrix(1,0,0,1,56,131.81551728127346)"><svg viewBox="0 0 208 96.36896543745308" height="96.36896543745308" width="208"><g><svg viewBox="0 0 477.720630460448 221.33386021923658" height="96.36896543745308" width="208"><g transform="matrix(1,0,0,1,269.72063046044804,59.426259476843825)"><svg viewBox="0 0 207.99999999999997 102.48134126554893" height="102.48134126554893" width="207.99999999999997"><g id="SvgjsG1207"><svg viewBox="0 0 207.99999999999997 102.48134126554893" height="102.48134126554893" width="207.99999999999997" id="SvgjsSvg1206"><g><svg viewBox="0 0 207.99999999999997 102.48134126554893" height="102.48134126554893" width="207.99999999999997"><g transform="matrix(1,0,0,1,0,0)"><svg width="207.99999999999997" viewBox="5.65 -41.5 92.44 45.54999999999999" height="102.48134126554893" data-palette-color="url(#e05fd115-36a2-4582-98ac-6b5dcb47b523)"></svg></g></svg></g></svg></g></svg></g><g><svg viewBox="0 0 221.33386021923658 221.33386021923658" height="221.33386021923658" width="221.33386021923658"><g><svg></svg></g><g id="SvgjsG1205"><svg viewBox="0 0 221.33386021923658 221.33386021923658" height="221.33386021923658" width="221.33386021923658"><g><path d="M0 110.667c0-61.12 49.547-110.667 110.667-110.667 61.12 0 110.667 49.547 110.667 110.667 0 61.12-49.547 110.667-110.667 110.667-61.12 0-110.667-49.547-110.667-110.667zM110.667 212.092c56.016 0 101.425-45.41 101.425-101.425 0-56.016-45.41-101.425-101.425-101.425-56.016 0-101.425 45.41-101.425 101.425 0 56.016 45.41 101.425 101.425 101.425z" fill="white" stroke="transparent"></path></g><g transform="matrix(1,0,0,1,57.445702261604886,52.13210990840857)"><svg viewBox="0 0 106.44245569602681 117.06964040241944" height="117.06964040241944" width="106.44245569602681"><g><svg xmlns="http://www.w3.org/2000/svg" xmlns:xlink="http://www.w3.org/1999/xlink" version="1.0" x="0" y="0" viewBox="2 0 12.883127534945315 14.169375348513816" style="enable-background:new 0 0 16 16;" xml:space="preserve" height="117.06964040241944" width="106.44245569602681" class="icon-cg-0" data-fill-palette-color="accent" id="SvgjsSvg1204"></svg></g></svg></g></svg></g></svg></g></svg></g></svg></g></svg></g><defs><mask></mask></defs><mask><g id="SvgjsG1203"><svg viewBox="0 0 320 360" height="360" width="320"><g><svg></svg></g><g><svg viewBox="0 0 320 360" height="360" width="320"><g><path transform="translate(-17.30355,3.60951) scale(3.54253,3.54253)" d="M50 95v0c-2.2 0-4.1-1.4-4.7-3.5-0.3-1.1-1.5-1.7-2.5-1.4-0.4 0.1-0.8 0.4-1.1 0.8-1.6 2.2-4.6 2.8-6.9 1.2-1.4-0.9-2.2-2.5-2.1-4.2 0-1.1-0.9-2.1-2-2.1-0.5 0-0.9 0.1-1.3 0.4-2.2 1.6-5.3 1.2-6.9-1-1-1.3-1.3-3-0.7-4.6 0.4-1.1-0.2-2.2-1.3-2.6-0.4-0.1-0.9-0.1-1.3 0-2.6 0.9-5.4-0.5-6.3-3.1-0.5-1.5-0.3-3.3 0.7-4.6 0.7-0.9 0.5-2.2-0.4-2.8-0.4-0.3-0.8-0.4-1.3-0.4-2.7 0.1-5-2.1-5-4.8 0-1.7 0.8-3.2 2.1-4.2 0.9-0.6 1.1-1.9 0.5-2.8-0.3-0.4-0.6-0.6-1.1-0.8-2.6-0.8-4.1-3.6-3.3-6.2 0.5-1.6 1.7-2.8 3.3-3.3 1.1-0.3 1.7-1.5 1.4-2.5-0.1-0.4-0.4-0.8-0.8-1.1-2.2-1.6-2.8-4.6-1.2-6.9 0.9-1.4 2.5-2.2 4.2-2.1 1.1 0 2.1-0.9 2.1-2 0-0.5-0.1-0.9-0.4-1.3-1.6-2.2-1.2-5.3 1-6.9 1.3-1 3-1.3 4.6-0.7 1.1 0.4 2.2-0.2 2.6-1.3 0.1-0.4 0.1-0.9 0-1.3-0.9-2.6 0.5-5.4 3.1-6.3 1.5-0.5 3.3-0.3 4.6 0.7 0.9 0.7 2.2 0.5 2.8-0.4 0.3-0.4 0.4-0.8 0.4-1.3-0.1-2.7 2.1-5 4.8-5 1.7 0 3.2 0.8 4.2 2.1 0.6 0.9 1.9 1.1 2.8 0.5 0.4-0.3 0.6-0.6 0.8-1.1 0.8-2.6 3.6-4.1 6.2-3.3 1.6 0.5 2.8 1.7 3.3 3.3v0c0.2 0.7 0.8 1.3 1.6 1.4 0.8 0.1 1.5-0.2 2-0.8 1.6-2.2 4.6-2.8 6.9-1.2 1.4 0.9 2.2 2.5 2.1 4.2 0 1.1 0.9 2.1 2 2.1 0.5 0 0.9-0.1 1.3-0.4 2.2-1.6 5.3-1.2 6.9 1 1 1.3 1.3 3 0.7 4.6-0.4 1.1 0.2 2.2 1.3 2.6 0.4 0.1 0.9 0.1 1.3 0 2.6-0.9 5.4 0.5 6.3 3.1 0.5 1.5 0.3 3.3-0.7 4.6-0.7 0.9-0.5 2.2 0.4 2.8 0.4 0.3 0.8 0.4 1.3 0.4 2.7-0.1 5 2.1 5 4.8 0 1.7-0.8 3.2-2.1 4.2-0.7 0.4-1 1.2-0.9 2 0.1 0.8 0.7 1.4 1.4 1.6 2.6 0.8 4.1 3.6 3.3 6.2-0.5 1.6-1.7 2.8-3.3 3.3-1.1 0.3-1.7 1.5-1.4 2.5 0.1 0.4 0.4 0.8 0.8 1.1 2.2 1.6 2.8 4.6 1.2 6.9-0.9 1.4-2.5 2.2-4.2 2.1-0.8 0-1.5 0.4-1.9 1.1-0.4 0.7-0.3 1.5 0.2 2.2 1.6 2.2 1.2 5.3-1 6.9-1.3 1-3 1.3-4.6 0.7-1.1-0.4-2.2 0.2-2.6 1.3-0.1 0.4-0.1 0.9 0 1.3 0.9 2.6-0.5 5.4-3.1 6.3-1.5 0.5-3.3 0.3-4.6-0.7-0.9-0.7-2.2-0.5-2.8 0.4-0.3 0.4-0.4 0.8-0.4 1.3 0.1 2.7-2.1 5-4.8 5-1.7 0-3.2-0.8-4.2-2.1-0.4-0.6-1.2-1-2-0.8-0.8 0.1-1.4 0.7-1.6 1.4-0.6 2.1-2.5 3.5-4.7 3.5zM43.3 87.2c0.3 0 0.5 0 0.8 0.1 1.9 0.3 3.4 1.6 3.9 3.4 0.3 1.1 1.5 1.7 2.5 1.3 0.6-0.2 1.1-0.7 1.3-1.3 0.8-2.6 3.6-4.1 6.2-3.3 1 0.3 2 1 2.6 1.9 0.7 0.9 1.9 1.1 2.9 0.4 0.5-0.4 0.8-1 0.8-1.6-0.1-2.7 2.1-5 4.8-5 1.1 0 2.2 0.3 3.1 1 0.9 0.7 2.2 0.5 2.8-0.4 0.4-0.5 0.5-1.3 0.3-1.9-0.9-2.6 0.4-5.4 3-6.3 1.1-0.4 2.2-0.4 3.3 0 1.1 0.4 2.2-0.2 2.6-1.3 0.2-0.6 0.1-1.4-0.3-1.9-1.6-2.2-1.2-5.3 1-6.9 0.9-0.7 2-1 3.1-1 1.1 0 2-0.9 2.1-2 0-0.7-0.3-1.3-0.9-1.7-2.2-1.6-2.8-4.6-1.2-6.9 0.6-0.9 1.5-1.6 2.6-1.9 1.1-0.3 1.7-1.5 1.3-2.5-0.2-0.6-0.7-1.1-1.3-1.3-2.6-0.8-4.1-3.6-3.3-6.2 0.3-1 1-2 1.9-2.6 0.9-0.7 1.1-2 0.4-2.9-0.4-0.5-1-0.8-1.6-0.8-2.7 0.1-5-2.1-5-4.8 0-1.1 0.3-2.2 1-3.1 0.7-0.9 0.5-2.2-0.4-2.8-0.5-0.4-1.3-0.5-1.9-0.3-2.6 0.9-5.4-0.4-6.3-3-0.4-1.1-0.4-2.2 0-3.3 0.4-1.1-0.2-2.2-1.3-2.6-0.6-0.2-1.4-0.1-1.9 0.3-2.2 1.6-5.3 1.2-6.9-1-0.7-0.9-1-2-1-3.1 0-1.1-0.9-2-2.1-2-0.6 0-1.3 0.3-1.6 0.8-1.6 2.2-4.6 2.8-6.9 1.2-0.9-0.6-1.6-1.5-1.9-2.6v0c-0.3-1.1-1.5-1.7-2.5-1.3-0.6 0.2-1.1 0.7-1.3 1.3-0.8 2.6-3.6 4.1-6.2 3.3-1-0.3-2-1-2.6-1.9-0.7-0.9-1.9-1.1-2.9-0.4-0.5 0.4-0.8 1-0.8 1.6 0.1 2.7-2.1 5-4.8 5-1.1 0-2.2-0.3-3.1-1-0.9-0.7-2.2-0.5-2.8 0.4-0.4 0.5-0.5 1.3-0.3 1.9 0.9 2.6-0.4 5.4-3 6.3-1.1 0.4-2.2 0.4-3.3 0-1.1-0.4-2.2 0.2-2.6 1.3-0.2 0.6-0.1 1.4 0.3 1.9 1.6 2.2 1.2 5.3-1 6.9-0.9 0.7-2 1-3.1 1-1.1 0-2 0.9-2 2.1 0 0.6 0.3 1.3 0.8 1.6 2.2 1.6 2.8 4.6 1.2 6.9-0.6 0.9-1.5 1.6-2.6 1.9-1.1 0.3-1.7 1.5-1.3 2.5 0.2 0.6 0.7 1.1 1.3 1.3 2.6 0.8 4.1 3.6 3.3 6.2-0.3 1-1 2-1.9 2.6-0.9 0.7-1.1 1.9-0.4 2.9 0.4 0.5 1 0.8 1.6 0.8 2.7-0.1 5 2.1 5 4.8 0 1.1-0.3 2.2-1 3.1-0.7 0.9-0.5 2.2 0.4 2.8 0.5 0.4 1.3 0.5 1.9 0.3 2.6-0.9 5.4 0.4 6.3 3 0.4 1.1 0.4 2.2 0 3.3-0.4 1.1 0.2 2.2 1.3 2.6 0.6 0.2 1.4 0.1 1.9-0.3 2.2-1.6 5.3-1.2 6.9 1 0.7 0.9 1 2 1 3.1 0 1.1 0.9 2 2 2.1 0.7 0 1.3-0.3 1.7-0.9 1-1.3 2.5-2.1 4.1-2.1z" fill="black" fill-rule="nonzero" stroke="none" stroke-width="1" stroke-linecap="butt" stroke-linejoin="miter" stroke-miterlimit="10" stroke-dasharray="" stroke-dashoffset="0" font-family="none" font-weight="none" font-size="none" text-anchor="none" style="mix-blend-mode: normal"></path></g><g transform="matrix(1,0,0,1,56,131.81551728127346)"><svg viewBox="0 0 208 96.36896543745308" height="96.36896543745308" width="208"><g><svg viewBox="0 0 477.720630460448 221.33386021923658" height="96.36896543745308" width="208"><g transform="matrix(1,0,0,1,269.72063046044804,59.426259476843825)"><svg viewBox="0 0 207.99999999999997 102.48134126554893" height="102.48134126554893" width="207.99999999999997"><g id="SvgjsG1202"><svg viewBox="0 0 207.99999999999997 102.48134126554893" height="102.48134126554893" width="207.99999999999997" id="SvgjsSvg1201"><g><svg viewBox="0 0 207.99999999999997 102.48134126554893" height="102.48134126554893" width="207.99999999999997"><g transform="matrix(1,0,0,1,0,0)"><svg width="207.99999999999997" viewBox="5.65 -41.5 92.44 45.54999999999999" height="102.48134126554893" data-palette-color="url(#e05fd115-36a2-4582-98ac-6b5dcb47b523)"><path d="M26-20.85L26-20.85Q27.6-20.85 28.53-19.95 29.45-19.05 29.45-17.45L29.45-17.45Q29.45-17.05 29.4-16.63 29.35-16.2 29.2-15.9L29.2-15.9Q28.55-16 27.75-16.07 26.95-16.15 25.85-16.15L25.85-16.15Q23.6-16.15 21.35-15.75 19.1-15.35 17.05-15.1L17.05-15.1Q14.8-9.8 13.35-5.15 11.9-0.5 11.1 4.05L11.1 4.05Q9.4 3.65 8.1 2.6 6.8 1.55 5.65-0.35L5.65-0.35Q6-1.15 6.5-2.27 7-3.4 7.7-5.13 8.4-6.85 9.38-9.33 10.35-11.8 11.7-15.25L11.7-15.25Q9.6-15.95 8.95-17.7L8.95-17.7Q9.2-17.95 10.35-18.28 11.5-18.6 13.15-19L13.15-19Q13.9-20.95 14.45-22.48 15-24 15.45-25.38 15.9-26.75 16.28-28.08 16.65-29.4 16.95-30.9L16.95-30.9 16.7-30.9Q14.8-30.9 13.63-31.8 12.45-32.7 12.45-34.15L12.45-34.15Q12.45-34.55 12.58-35.1 12.7-35.65 12.9-36.05L12.9-36.05Q13.85-35.9 14.78-35.85 15.7-35.8 17.2-35.8L17.2-35.8Q20.35-35.8 23.1-35.98 25.85-36.15 28.08-36.35 30.3-36.55 31.9-36.73 33.5-36.9 34.35-36.9L34.35-36.9Q35.5-36.9 36.4-35.7 37.3-34.5 37.8-32.3L37.8-32.3Q36.2-32.45 35.23-32.5 34.25-32.55 33.5-32.55L33.5-32.55Q30.95-32.55 28.83-32.33 26.7-32.1 24.8-31.8L24.8-31.8Q24.5-31.35 24.13-30.65 23.75-29.95 23.15-28.68 22.55-27.4 21.63-25.35 20.7-23.3 19.3-20.15L19.3-20.15Q21.25-20.45 23.03-20.65 24.8-20.85 26-20.85ZM32.1-3.2L32.1-3.2Q32.1-5.4 33.15-9.38 34.2-13.35 36.1-18.65L36.1-18.65Q39.2-27.1 41.92-32.73 44.65-38.35 47.25-41.5L47.25-41.5Q47.85-41.4 48.72-41 49.6-40.6 50.45-40.13 51.3-39.65 51.97-39.15 52.65-38.65 52.85-38.35L52.85-38.35Q48.95-33.75 46-28.45 43.05-23.15 40.6-16.3L40.6-16.3Q38.5-10.4 37.4-5.68 36.3-0.95 36.3 2.2L36.3 2.2Q36.3 3.05 36.3 3.25 36.3 3.45 36.35 3.65L36.35 3.65Q35.65 3.55 35.15 3.3 34.65 3.05 34.5 2.7L34.5 2.7Q34.4 2.45 33.95 1.98 33.5 1.5 33.15 1.25L33.15 1.25Q32.7 0.95 32.4-0.33 32.1-1.6 32.1-3.2ZM49.64 1.75L49.64 1.75Q46.79 1.45 45.09-0.75 43.39-2.95 43.39-6.35L43.39-6.35Q43.39-8.35 43.99-10.5 44.59-12.65 45.69-14.68 46.79-16.7 48.29-18.5 49.79-20.3 51.54-21.6L51.54-21.6Q54.29-23.65 56.69-23.65L56.69-23.65Q58.3-22.8 59.84-20.1L59.84-20.1Q60.09-20.1 60.3-20.13 60.49-20.15 60.74-20.15L60.74-20.15Q63.39-20.15 63.39-15.45L63.39-15.45Q63.39-12.3 62.37-9.47 61.34-6.65 59.52-4.35 57.69-2.05 55.17-0.48 52.64 1.1 49.64 1.75ZM52.19-14L52.19-14Q51.34-12.85 50.59-11.5 49.84-10.15 49.29-8.78 48.74-7.4 48.44-6.13 48.14-4.85 48.14-3.85L48.14-3.85Q48.14-2.65 48.54-1.55 48.94-0.45 49.44-0.3L49.44-0.3Q51.69-0.8 53.57-2.18 55.44-3.55 56.82-5.6 58.19-7.65 58.97-10.25 59.74-12.85 59.74-15.8L59.74-15.8Q59.74-17.1 59.59-17.85 59.44-18.6 59.09-19.15L59.09-19.15Q56.89-18.5 55.17-17.05 53.44-15.6 52.19-14ZM66.24-2.05L66.24-2.05Q66.24-3.05 66.47-4.85 66.69-6.65 67.07-8.75 67.44-10.85 67.92-13.05 68.39-15.25 68.89-17L68.89-17Q69.54-19.35 70.92-20.63 72.29-21.9 74.34-21.9L74.34-21.9Q75.44-21.9 76.52-21.55 77.59-21.2 77.79-20.65L77.79-20.65Q76.34-19.45 75.47-17.68 74.59-15.9 74.07-13.88 73.54-11.85 73.27-9.73 72.99-7.6 72.69-5.75L72.69-5.75Q74.34-7.95 75.82-9.73 77.29-11.5 78.44-12.55L78.44-12.55Q79.99-14 80.54-14.98 81.09-15.95 81.49-17.1L81.49-17.1Q81.79-18 82.22-19.2 82.64-20.4 83.64-21.4L83.64-21.4Q83.84-21.45 84.49-21.45L84.49-21.45Q84.99-21.45 85.57-21.4 86.14-21.35 86.64-21.2 87.14-21.05 87.49-20.85 87.84-20.65 87.89-20.35L87.89-20.35Q87.09-19.3 86.39-17.07 85.69-14.85 85.14-12.2 84.59-9.55 84.14-6.93 83.69-4.3 83.34-2.5L83.34-2.5Q83.54-2.6 84.24-3.3 84.94-4 85.82-5.05 86.69-6.1 87.67-7.35 88.64-8.6 89.39-9.8L89.39-9.8Q90.34-11.25 90.97-12.53 91.59-13.8 92.07-15.25 92.54-16.7 92.94-18.48 93.34-20.25 93.79-22.7L93.79-22.7Q94.09-23.1 95.12-23.38 96.14-23.65 96.99-23.65L96.99-23.65Q97.74-23.65 98.09-23.4L98.09-23.4Q97.84-20.6 97.17-18.4 96.49-16.2 95.34-14.13 94.19-12.05 92.49-9.98 90.79-7.9 88.49-5.45L88.49-5.45Q87.54-4.45 86.42-3.25 85.29-2.05 84.22-1.03 83.14 0 82.22 0.7 81.29 1.4 80.79 1.4L80.79 1.4Q79.64 1.4 78.89 0.5 78.14-0.4 78.14-1.8L78.14-1.8Q78.14-3.25 78.27-4.33 78.39-5.4 78.69-6.6L78.69-6.6Q78.99-7.7 79.17-8.45 79.34-9.2 79.47-9.75 79.59-10.3 79.64-10.7 79.69-11.1 79.74-11.5L79.74-11.5Q79.34-11.3 78.69-10.68 78.04-10.05 77.34-9.22 76.64-8.4 75.94-7.55 75.24-6.7 74.79-6.1L74.79-6.1Q73.84-4.8 73.14-3.8 72.44-2.8 71.82-1.9 71.19-1 70.59-0.08 69.99 0.85 69.19 1.9L69.19 1.9Q67.59 1.4 66.92 0.4 66.24-0.6 66.24-2.05Z" opacity="1" transform="matrix(1,0,0,1,0,0)" fill="black" class="wordmark-text-0" id="SvgjsPath1200"></path></svg></g></svg></g></svg></g></svg></g><g><svg viewBox="0 0 221.33386021923658 221.33386021923658" height="221.33386021923658" width="221.33386021923658"><g><svg></svg></g><g id="SvgjsG1199"><svg viewBox="0 0 221.33386021923658 221.33386021923658" height="221.33386021923658" width="221.33386021923658"><g><path d="M0 110.667c0-61.12 49.547-110.667 110.667-110.667 61.12 0 110.667 49.547 110.667 110.667 0 61.12-49.547 110.667-110.667 110.667-61.12 0-110.667-49.547-110.667-110.667zM110.667 212.092c56.016 0 101.425-45.41 101.425-101.425 0-56.016-45.41-101.425-101.425-101.425-56.016 0-101.425 45.41-101.425 101.425 0 56.016 45.41 101.425 101.425 101.425z" fill="black" stroke="transparent"></path></g><g transform="matrix(1,0,0,1,57.445702261604886,52.13210990840857)"><svg viewBox="0 0 106.44245569602681 117.06964040241944" height="117.06964040241944" width="106.44245569602681"><g><svg xmlns="http://www.w3.org/2000/svg" xmlns:xlink="http://www.w3.org/1999/xlink" version="1.0" x="0" y="0" viewBox="2 0 12.883127534945315 14.169375348513816" style="enable-background:new 0 0 16 16;" xml:space="preserve" height="117.06964040241944" width="106.44245569602681" class="icon-cg-0" data-fill-palette-color="accent" id="SvgjsSvg1198"><path d="M10.216 14.068c-0.122 0.135-0.322 0.135-0.444 0.001l-2.769-3.084c-0.123-0.135-0.118-0.351 0.011-0.479l0.475-0.476c0.129-0.128 0.338-0.127 0.464 0.004L9.758 11.9c0.127 0.131 0.332 0.128 0.454-0.007l3.424-3.752c0.123-0.134 0.334-0.145 0.47-0.022l0.42 0.33c0.458 0.458 0.494 0.506 0 1L10.216 14.068z" fill="black"></path><path d="M7.5 2C7 2 7 3 7 3h1C8 3 8 2 7.5 2z" fill="black"></path><path d="M12 2h-2C9.914 1 9 0 7.5 0S5.086 1 5 2H3c0 0-1 0-1 1 0 0.815 0 9 0 10s1 1 1 1h5.628l-2.5-2.485c-0.42-0.461-0.191-1.052 0.25-1.492l0.75-0.747c0.217-0.217 0.444-0.248 0.75-0.248 0.309 0 0.785 0.279 1 0.502l1.145 1.25L13 7.571C13 7.571 13 4 13 3S12 2 12 2zM4.5 8H4c0 0-0.5 0-0.5-0.5S4 7 4 7h0.5C4.5 7 5 7 5 7.5S4.5 8 4.5 8zM4.5 6H4c0 0-0.5 0-0.5-0.5S4 5 4 5h0.5C4.5 5 5 5 5 5.5S4.5 6 4.5 6zM11 8H6.5C6.5 8 6 8 6 7.5S6.5 7 6.5 7H11c0 0 0.5 0 0.5 0.5S11 8 11 8zM11 6H6.5C6.5 6 6 6 6 5.5S6.5 5 6.5 5H11c0 0 0.5 0 0.5 0.5S11 6 11 6zM3 4c0 0 0-1 1-1s2 0 2 0 0-1.938 1.5-1.938S9.027 3 9 3c0 0 1 0 2 0s1 1 1 1H3z" fill="black"></path></svg></g></svg></g></svg></g></svg></g></svg></g></svg></g></svg></g><defs><mask></mask></defs></svg><rect width="320" height="360" fill="black" stroke="none" visibility="hidden"></rect></g></mask><mask><g id="SvgjsG1197"><svg viewBox="0 0 320 360" height="360" width="320"><g><svg></svg></g><g><svg viewBox="0 0 320 360" height="360" width="320"><g><path transform="translate(-17.30355,3.60951) scale(3.54253,3.54253)" d="M50 95v0c-2.2 0-4.1-1.4-4.7-3.5-0.3-1.1-1.5-1.7-2.5-1.4-0.4 0.1-0.8 0.4-1.1 0.8-1.6 2.2-4.6 2.8-6.9 1.2-1.4-0.9-2.2-2.5-2.1-4.2 0-1.1-0.9-2.1-2-2.1-0.5 0-0.9 0.1-1.3 0.4-2.2 1.6-5.3 1.2-6.9-1-1-1.3-1.3-3-0.7-4.6 0.4-1.1-0.2-2.2-1.3-2.6-0.4-0.1-0.9-0.1-1.3 0-2.6 0.9-5.4-0.5-6.3-3.1-0.5-1.5-0.3-3.3 0.7-4.6 0.7-0.9 0.5-2.2-0.4-2.8-0.4-0.3-0.8-0.4-1.3-0.4-2.7 0.1-5-2.1-5-4.8 0-1.7 0.8-3.2 2.1-4.2 0.9-0.6 1.1-1.9 0.5-2.8-0.3-0.4-0.6-0.6-1.1-0.8-2.6-0.8-4.1-3.6-3.3-6.2 0.5-1.6 1.7-2.8 3.3-3.3 1.1-0.3 1.7-1.5 1.4-2.5-0.1-0.4-0.4-0.8-0.8-1.1-2.2-1.6-2.8-4.6-1.2-6.9 0.9-1.4 2.5-2.2 4.2-2.1 1.1 0 2.1-0.9 2.1-2 0-0.5-0.1-0.9-0.4-1.3-1.6-2.2-1.2-5.3 1-6.9 1.3-1 3-1.3 4.6-0.7 1.1 0.4 2.2-0.2 2.6-1.3 0.1-0.4 0.1-0.9 0-1.3-0.9-2.6 0.5-5.4 3.1-6.3 1.5-0.5 3.3-0.3 4.6 0.7 0.9 0.7 2.2 0.5 2.8-0.4 0.3-0.4 0.4-0.8 0.4-1.3-0.1-2.7 2.1-5 4.8-5 1.7 0 3.2 0.8 4.2 2.1 0.6 0.9 1.9 1.1 2.8 0.5 0.4-0.3 0.6-0.6 0.8-1.1 0.8-2.6 3.6-4.1 6.2-3.3 1.6 0.5 2.8 1.7 3.3 3.3v0c0.2 0.7 0.8 1.3 1.6 1.4 0.8 0.1 1.5-0.2 2-0.8 1.6-2.2 4.6-2.8 6.9-1.2 1.4 0.9 2.2 2.5 2.1 4.2 0 1.1 0.9 2.1 2 2.1 0.5 0 0.9-0.1 1.3-0.4 2.2-1.6 5.3-1.2 6.9 1 1 1.3 1.3 3 0.7 4.6-0.4 1.1 0.2 2.2 1.3 2.6 0.4 0.1 0.9 0.1 1.3 0 2.6-0.9 5.4 0.5 6.3 3.1 0.5 1.5 0.3 3.3-0.7 4.6-0.7 0.9-0.5 2.2 0.4 2.8 0.4 0.3 0.8 0.4 1.3 0.4 2.7-0.1 5 2.1 5 4.8 0 1.7-0.8 3.2-2.1 4.2-0.7 0.4-1 1.2-0.9 2 0.1 0.8 0.7 1.4 1.4 1.6 2.6 0.8 4.1 3.6 3.3 6.2-0.5 1.6-1.7 2.8-3.3 3.3-1.1 0.3-1.7 1.5-1.4 2.5 0.1 0.4 0.4 0.8 0.8 1.1 2.2 1.6 2.8 4.6 1.2 6.9-0.9 1.4-2.5 2.2-4.2 2.1-0.8 0-1.5 0.4-1.9 1.1-0.4 0.7-0.3 1.5 0.2 2.2 1.6 2.2 1.2 5.3-1 6.9-1.3 1-3 1.3-4.6 0.7-1.1-0.4-2.2 0.2-2.6 1.3-0.1 0.4-0.1 0.9 0 1.3 0.9 2.6-0.5 5.4-3.1 6.3-1.5 0.5-3.3 0.3-4.6-0.7-0.9-0.7-2.2-0.5-2.8 0.4-0.3 0.4-0.4 0.8-0.4 1.3 0.1 2.7-2.1 5-4.8 5-1.7 0-3.2-0.8-4.2-2.1-0.4-0.6-1.2-1-2-0.8-0.8 0.1-1.4 0.7-1.6 1.4-0.6 2.1-2.5 3.5-4.7 3.5zM43.3 87.2c0.3 0 0.5 0 0.8 0.1 1.9 0.3 3.4 1.6 3.9 3.4 0.3 1.1 1.5 1.7 2.5 1.3 0.6-0.2 1.1-0.7 1.3-1.3 0.8-2.6 3.6-4.1 6.2-3.3 1 0.3 2 1 2.6 1.9 0.7 0.9 1.9 1.1 2.9 0.4 0.5-0.4 0.8-1 0.8-1.6-0.1-2.7 2.1-5 4.8-5 1.1 0 2.2 0.3 3.1 1 0.9 0.7 2.2 0.5 2.8-0.4 0.4-0.5 0.5-1.3 0.3-1.9-0.9-2.6 0.4-5.4 3-6.3 1.1-0.4 2.2-0.4 3.3 0 1.1 0.4 2.2-0.2 2.6-1.3 0.2-0.6 0.1-1.4-0.3-1.9-1.6-2.2-1.2-5.3 1-6.9 0.9-0.7 2-1 3.1-1 1.1 0 2-0.9 2.1-2 0-0.7-0.3-1.3-0.9-1.7-2.2-1.6-2.8-4.6-1.2-6.9 0.6-0.9 1.5-1.6 2.6-1.9 1.1-0.3 1.7-1.5 1.3-2.5-0.2-0.6-0.7-1.1-1.3-1.3-2.6-0.8-4.1-3.6-3.3-6.2 0.3-1 1-2 1.9-2.6 0.9-0.7 1.1-2 0.4-2.9-0.4-0.5-1-0.8-1.6-0.8-2.7 0.1-5-2.1-5-4.8 0-1.1 0.3-2.2 1-3.1 0.7-0.9 0.5-2.2-0.4-2.8-0.5-0.4-1.3-0.5-1.9-0.3-2.6 0.9-5.4-0.4-6.3-3-0.4-1.1-0.4-2.2 0-3.3 0.4-1.1-0.2-2.2-1.3-2.6-0.6-0.2-1.4-0.1-1.9 0.3-2.2 1.6-5.3 1.2-6.9-1-0.7-0.9-1-2-1-3.1 0-1.1-0.9-2-2.1-2-0.6 0-1.3 0.3-1.6 0.8-1.6 2.2-4.6 2.8-6.9 1.2-0.9-0.6-1.6-1.5-1.9-2.6v0c-0.3-1.1-1.5-1.7-2.5-1.3-0.6 0.2-1.1 0.7-1.3 1.3-0.8 2.6-3.6 4.1-6.2 3.3-1-0.3-2-1-2.6-1.9-0.7-0.9-1.9-1.1-2.9-0.4-0.5 0.4-0.8 1-0.8 1.6 0.1 2.7-2.1 5-4.8 5-1.1 0-2.2-0.3-3.1-1-0.9-0.7-2.2-0.5-2.8 0.4-0.4 0.5-0.5 1.3-0.3 1.9 0.9 2.6-0.4 5.4-3 6.3-1.1 0.4-2.2 0.4-3.3 0-1.1-0.4-2.2 0.2-2.6 1.3-0.2 0.6-0.1 1.4 0.3 1.9 1.6 2.2 1.2 5.3-1 6.9-0.9 0.7-2 1-3.1 1-1.1 0-2 0.9-2 2.1 0 0.6 0.3 1.3 0.8 1.6 2.2 1.6 2.8 4.6 1.2 6.9-0.6 0.9-1.5 1.6-2.6 1.9-1.1 0.3-1.7 1.5-1.3 2.5 0.2 0.6 0.7 1.1 1.3 1.3 2.6 0.8 4.1 3.6 3.3 6.2-0.3 1-1 2-1.9 2.6-0.9 0.7-1.1 1.9-0.4 2.9 0.4 0.5 1 0.8 1.6 0.8 2.7-0.1 5 2.1 5 4.8 0 1.1-0.3 2.2-1 3.1-0.7 0.9-0.5 2.2 0.4 2.8 0.5 0.4 1.3 0.5 1.9 0.3 2.6-0.9 5.4 0.4 6.3 3 0.4 1.1 0.4 2.2 0 3.3-0.4 1.1 0.2 2.2 1.3 2.6 0.6 0.2 1.4 0.1 1.9-0.3 2.2-1.6 5.3-1.2 6.9 1 0.7 0.9 1 2 1 3.1 0 1.1 0.9 2 2 2.1 0.7 0 1.3-0.3 1.7-0.9 1-1.3 2.5-2.1 4.1-2.1z" fill="black" fill-rule="nonzero" stroke="none" stroke-width="1" stroke-linecap="butt" stroke-linejoin="miter" stroke-miterlimit="10" stroke-dasharray="" stroke-dashoffset="0" font-family="none" font-weight="none" font-size="none" text-anchor="none" style="mix-blend-mode: normal"></path></g><g transform="matrix(1,0,0,1,56,131.81551728127346)"><svg viewBox="0 0 208 96.36896543745308" height="96.36896543745308" width="208"><g><svg viewBox="0 0 477.720630460448 221.33386021923658" height="96.36896543745308" width="208"><g transform="matrix(1,0,0,1,269.72063046044804,59.426259476843825)"><svg viewBox="0 0 207.99999999999997 102.48134126554893" height="102.48134126554893" width="207.99999999999997"><g id="SvgjsG1196"><svg viewBox="0 0 207.99999999999997 102.48134126554893" height="102.48134126554893" width="207.99999999999997" id="SvgjsSvg1195"><g><svg viewBox="0 0 207.99999999999997 102.48134126554893" height="102.48134126554893" width="207.99999999999997"><g transform="matrix(1,0,0,1,0,0)"><svg width="207.99999999999997" viewBox="5.65 -41.5 92.44 45.54999999999999" height="102.48134126554893" data-palette-color="url(#e05fd115-36a2-4582-98ac-6b5dcb47b523)"></svg></g></svg></g></svg></g></svg></g><g><svg viewBox="0 0 221.33386021923658 221.33386021923658" height="221.33386021923658" width="221.33386021923658"><g><svg></svg></g><g id="SvgjsG1194"><svg viewBox="0 0 221.33386021923658 221.33386021923658" height="221.33386021923658" width="221.33386021923658"><g><path d="M0 110.667c0-61.12 49.547-110.667 110.667-110.667 61.12 0 110.667 49.547 110.667 110.667 0 61.12-49.547 110.667-110.667 110.667-61.12 0-110.667-49.547-110.667-110.667zM110.667 212.092c56.016 0 101.425-45.41 101.425-101.425 0-56.016-45.41-101.425-101.425-101.425-56.016 0-101.425 45.41-101.425 101.425 0 56.016 45.41 101.425 101.425 101.425z" fill="black" stroke="transparent"></path></g><g transform="matrix(1,0,0,1,57.445702261604886,52.13210990840857)"><svg viewBox="0 0 106.44245569602681 117.06964040241944" height="117.06964040241944" width="106.44245569602681"><g><svg xmlns="http://www.w3.org/2000/svg" xmlns:xlink="http://www.w3.org/1999/xlink" version="1.0" x="0" y="0" viewBox="2 0 12.883127534945315 14.169375348513816" style="enable-background:new 0 0 16 16;" xml:space="preserve" height="117.06964040241944" width="106.44245569602681" class="icon-cg-0" data-fill-palette-color="accent" id="SvgjsSvg1193"><path d="M10.216 14.068c-0.122 0.135-0.322 0.135-0.444 0.001l-2.769-3.084c-0.123-0.135-0.118-0.351 0.011-0.479l0.475-0.476c0.129-0.128 0.338-0.127 0.464 0.004L9.758 11.9c0.127 0.131 0.332 0.128 0.454-0.007l3.424-3.752c0.123-0.134 0.334-0.145 0.47-0.022l0.42 0.33c0.458 0.458 0.494 0.506 0 1L10.216 14.068z" fill="black"></path><path d="M7.5 2C7 2 7 3 7 3h1C8 3 8 2 7.5 2z" fill="black"></path><path d="M12 2h-2C9.914 1 9 0 7.5 0S5.086 1 5 2H3c0 0-1 0-1 1 0 0.815 0 9 0 10s1 1 1 1h5.628l-2.5-2.485c-0.42-0.461-0.191-1.052 0.25-1.492l0.75-0.747c0.217-0.217 0.444-0.248 0.75-0.248 0.309 0 0.785 0.279 1 0.502l1.145 1.25L13 7.571C13 7.571 13 4 13 3S12 2 12 2zM4.5 8H4c0 0-0.5 0-0.5-0.5S4 7 4 7h0.5C4.5 7 5 7 5 7.5S4.5 8 4.5 8zM4.5 6H4c0 0-0.5 0-0.5-0.5S4 5 4 5h0.5C4.5 5 5 5 5 5.5S4.5 6 4.5 6zM11 8H6.5C6.5 8 6 8 6 7.5S6.5 7 6.5 7H11c0 0 0.5 0 0.5 0.5S11 8 11 8zM11 6H6.5C6.5 6 6 6 6 5.5S6.5 5 6.5 5H11c0 0 0.5 0 0.5 0.5S11 6 11 6zM3 4c0 0 0-1 1-1s2 0 2 0 0-1.938 1.5-1.938S9.027 3 9 3c0 0 1 0 2 0s1 1 1 1H3z" fill="black"></path></svg></g></svg></g></svg></g></svg></g></svg></g></svg></g></svg></g><defs><mask></mask></defs><mask><g id="SvgjsG1192"><svg viewBox="0 0 320 360" height="360" width="320"><g><svg></svg></g><g><svg viewBox="0 0 320 360" height="360" width="320"><g><path transform="translate(-17.30355,3.60951) scale(3.54253,3.54253)" d="M50 95v0c-2.2 0-4.1-1.4-4.7-3.5-0.3-1.1-1.5-1.7-2.5-1.4-0.4 0.1-0.8 0.4-1.1 0.8-1.6 2.2-4.6 2.8-6.9 1.2-1.4-0.9-2.2-2.5-2.1-4.2 0-1.1-0.9-2.1-2-2.1-0.5 0-0.9 0.1-1.3 0.4-2.2 1.6-5.3 1.2-6.9-1-1-1.3-1.3-3-0.7-4.6 0.4-1.1-0.2-2.2-1.3-2.6-0.4-0.1-0.9-0.1-1.3 0-2.6 0.9-5.4-0.5-6.3-3.1-0.5-1.5-0.3-3.3 0.7-4.6 0.7-0.9 0.5-2.2-0.4-2.8-0.4-0.3-0.8-0.4-1.3-0.4-2.7 0.1-5-2.1-5-4.8 0-1.7 0.8-3.2 2.1-4.2 0.9-0.6 1.1-1.9 0.5-2.8-0.3-0.4-0.6-0.6-1.1-0.8-2.6-0.8-4.1-3.6-3.3-6.2 0.5-1.6 1.7-2.8 3.3-3.3 1.1-0.3 1.7-1.5 1.4-2.5-0.1-0.4-0.4-0.8-0.8-1.1-2.2-1.6-2.8-4.6-1.2-6.9 0.9-1.4 2.5-2.2 4.2-2.1 1.1 0 2.1-0.9 2.1-2 0-0.5-0.1-0.9-0.4-1.3-1.6-2.2-1.2-5.3 1-6.9 1.3-1 3-1.3 4.6-0.7 1.1 0.4 2.2-0.2 2.6-1.3 0.1-0.4 0.1-0.9 0-1.3-0.9-2.6 0.5-5.4 3.1-6.3 1.5-0.5 3.3-0.3 4.6 0.7 0.9 0.7 2.2 0.5 2.8-0.4 0.3-0.4 0.4-0.8 0.4-1.3-0.1-2.7 2.1-5 4.8-5 1.7 0 3.2 0.8 4.2 2.1 0.6 0.9 1.9 1.1 2.8 0.5 0.4-0.3 0.6-0.6 0.8-1.1 0.8-2.6 3.6-4.1 6.2-3.3 1.6 0.5 2.8 1.7 3.3 3.3v0c0.2 0.7 0.8 1.3 1.6 1.4 0.8 0.1 1.5-0.2 2-0.8 1.6-2.2 4.6-2.8 6.9-1.2 1.4 0.9 2.2 2.5 2.1 4.2 0 1.1 0.9 2.1 2 2.1 0.5 0 0.9-0.1 1.3-0.4 2.2-1.6 5.3-1.2 6.9 1 1 1.3 1.3 3 0.7 4.6-0.4 1.1 0.2 2.2 1.3 2.6 0.4 0.1 0.9 0.1 1.3 0 2.6-0.9 5.4 0.5 6.3 3.1 0.5 1.5 0.3 3.3-0.7 4.6-0.7 0.9-0.5 2.2 0.4 2.8 0.4 0.3 0.8 0.4 1.3 0.4 2.7-0.1 5 2.1 5 4.8 0 1.7-0.8 3.2-2.1 4.2-0.7 0.4-1 1.2-0.9 2 0.1 0.8 0.7 1.4 1.4 1.6 2.6 0.8 4.1 3.6 3.3 6.2-0.5 1.6-1.7 2.8-3.3 3.3-1.1 0.3-1.7 1.5-1.4 2.5 0.1 0.4 0.4 0.8 0.8 1.1 2.2 1.6 2.8 4.6 1.2 6.9-0.9 1.4-2.5 2.2-4.2 2.1-0.8 0-1.5 0.4-1.9 1.1-0.4 0.7-0.3 1.5 0.2 2.2 1.6 2.2 1.2 5.3-1 6.9-1.3 1-3 1.3-4.6 0.7-1.1-0.4-2.2 0.2-2.6 1.3-0.1 0.4-0.1 0.9 0 1.3 0.9 2.6-0.5 5.4-3.1 6.3-1.5 0.5-3.3 0.3-4.6-0.7-0.9-0.7-2.2-0.5-2.8 0.4-0.3 0.4-0.4 0.8-0.4 1.3 0.1 2.7-2.1 5-4.8 5-1.7 0-3.2-0.8-4.2-2.1-0.4-0.6-1.2-1-2-0.8-0.8 0.1-1.4 0.7-1.6 1.4-0.6 2.1-2.5 3.5-4.7 3.5zM43.3 87.2c0.3 0 0.5 0 0.8 0.1 1.9 0.3 3.4 1.6 3.9 3.4 0.3 1.1 1.5 1.7 2.5 1.3 0.6-0.2 1.1-0.7 1.3-1.3 0.8-2.6 3.6-4.1 6.2-3.3 1 0.3 2 1 2.6 1.9 0.7 0.9 1.9 1.1 2.9 0.4 0.5-0.4 0.8-1 0.8-1.6-0.1-2.7 2.1-5 4.8-5 1.1 0 2.2 0.3 3.1 1 0.9 0.7 2.2 0.5 2.8-0.4 0.4-0.5 0.5-1.3 0.3-1.9-0.9-2.6 0.4-5.4 3-6.3 1.1-0.4 2.2-0.4 3.3 0 1.1 0.4 2.2-0.2 2.6-1.3 0.2-0.6 0.1-1.4-0.3-1.9-1.6-2.2-1.2-5.3 1-6.9 0.9-0.7 2-1 3.1-1 1.1 0 2-0.9 2.1-2 0-0.7-0.3-1.3-0.9-1.7-2.2-1.6-2.8-4.6-1.2-6.9 0.6-0.9 1.5-1.6 2.6-1.9 1.1-0.3 1.7-1.5 1.3-2.5-0.2-0.6-0.7-1.1-1.3-1.3-2.6-0.8-4.1-3.6-3.3-6.2 0.3-1 1-2 1.9-2.6 0.9-0.7 1.1-2 0.4-2.9-0.4-0.5-1-0.8-1.6-0.8-2.7 0.1-5-2.1-5-4.8 0-1.1 0.3-2.2 1-3.1 0.7-0.9 0.5-2.2-0.4-2.8-0.5-0.4-1.3-0.5-1.9-0.3-2.6 0.9-5.4-0.4-6.3-3-0.4-1.1-0.4-2.2 0-3.3 0.4-1.1-0.2-2.2-1.3-2.6-0.6-0.2-1.4-0.1-1.9 0.3-2.2 1.6-5.3 1.2-6.9-1-0.7-0.9-1-2-1-3.1 0-1.1-0.9-2-2.1-2-0.6 0-1.3 0.3-1.6 0.8-1.6 2.2-4.6 2.8-6.9 1.2-0.9-0.6-1.6-1.5-1.9-2.6v0c-0.3-1.1-1.5-1.7-2.5-1.3-0.6 0.2-1.1 0.7-1.3 1.3-0.8 2.6-3.6 4.1-6.2 3.3-1-0.3-2-1-2.6-1.9-0.7-0.9-1.9-1.1-2.9-0.4-0.5 0.4-0.8 1-0.8 1.6 0.1 2.7-2.1 5-4.8 5-1.1 0-2.2-0.3-3.1-1-0.9-0.7-2.2-0.5-2.8 0.4-0.4 0.5-0.5 1.3-0.3 1.9 0.9 2.6-0.4 5.4-3 6.3-1.1 0.4-2.2 0.4-3.3 0-1.1-0.4-2.2 0.2-2.6 1.3-0.2 0.6-0.1 1.4 0.3 1.9 1.6 2.2 1.2 5.3-1 6.9-0.9 0.7-2 1-3.1 1-1.1 0-2 0.9-2 2.1 0 0.6 0.3 1.3 0.8 1.6 2.2 1.6 2.8 4.6 1.2 6.9-0.6 0.9-1.5 1.6-2.6 1.9-1.1 0.3-1.7 1.5-1.3 2.5 0.2 0.6 0.7 1.1 1.3 1.3 2.6 0.8 4.1 3.6 3.3 6.2-0.3 1-1 2-1.9 2.6-0.9 0.7-1.1 1.9-0.4 2.9 0.4 0.5 1 0.8 1.6 0.8 2.7-0.1 5 2.1 5 4.8 0 1.1-0.3 2.2-1 3.1-0.7 0.9-0.5 2.2 0.4 2.8 0.5 0.4 1.3 0.5 1.9 0.3 2.6-0.9 5.4 0.4 6.3 3 0.4 1.1 0.4 2.2 0 3.3-0.4 1.1 0.2 2.2 1.3 2.6 0.6 0.2 1.4 0.1 1.9-0.3 2.2-1.6 5.3-1.2 6.9 1 0.7 0.9 1 2 1 3.1 0 1.1 0.9 2 2 2.1 0.7 0 1.3-0.3 1.7-0.9 1-1.3 2.5-2.1 4.1-2.1z" fill="black" fill-rule="nonzero" stroke="none" stroke-width="1" stroke-linecap="butt" stroke-linejoin="miter" stroke-miterlimit="10" stroke-dasharray="" stroke-dashoffset="0" font-family="none" font-weight="none" font-size="none" text-anchor="none" style="mix-blend-mode: normal"></path></g><g transform="matrix(1,0,0,1,56,131.81551728127346)"><svg viewBox="0 0 208 96.36896543745308" height="96.36896543745308" width="208"><g><svg viewBox="0 0 477.720630460448 221.33386021923658" height="96.36896543745308" width="208"><g transform="matrix(1,0,0,1,269.72063046044804,59.426259476843825)"><svg viewBox="0 0 207.99999999999997 102.48134126554893" height="102.48134126554893" width="207.99999999999997"><g id="SvgjsG1191"><svg viewBox="0 0 207.99999999999997 102.48134126554893" height="102.48134126554893" width="207.99999999999997" id="SvgjsSvg1190"><g><svg viewBox="0 0 207.99999999999997 102.48134126554893" height="102.48134126554893" width="207.99999999999997"><g transform="matrix(1,0,0,1,0,0)"><svg width="207.99999999999997" viewBox="5.65 -41.5 92.44 45.54999999999999" height="102.48134126554893" data-palette-color="url(#e05fd115-36a2-4582-98ac-6b5dcb47b523)"><path d="M26-20.85L26-20.85Q27.6-20.85 28.53-19.95 29.45-19.05 29.45-17.45L29.45-17.45Q29.45-17.05 29.4-16.63 29.35-16.2 29.2-15.9L29.2-15.9Q28.55-16 27.75-16.07 26.95-16.15 25.85-16.15L25.85-16.15Q23.6-16.15 21.35-15.75 19.1-15.35 17.05-15.1L17.05-15.1Q14.8-9.8 13.35-5.15 11.9-0.5 11.1 4.05L11.1 4.05Q9.4 3.65 8.1 2.6 6.8 1.55 5.65-0.35L5.65-0.35Q6-1.15 6.5-2.27 7-3.4 7.7-5.13 8.4-6.85 9.38-9.33 10.35-11.8 11.7-15.25L11.7-15.25Q9.6-15.95 8.95-17.7L8.95-17.7Q9.2-17.95 10.35-18.28 11.5-18.6 13.15-19L13.15-19Q13.9-20.95 14.45-22.48 15-24 15.45-25.38 15.9-26.75 16.28-28.08 16.65-29.4 16.95-30.9L16.95-30.9 16.7-30.9Q14.8-30.9 13.63-31.8 12.45-32.7 12.45-34.15L12.45-34.15Q12.45-34.55 12.58-35.1 12.7-35.65 12.9-36.05L12.9-36.05Q13.85-35.9 14.78-35.85 15.7-35.8 17.2-35.8L17.2-35.8Q20.35-35.8 23.1-35.98 25.85-36.15 28.08-36.35 30.3-36.55 31.9-36.73 33.5-36.9 34.35-36.9L34.35-36.9Q35.5-36.9 36.4-35.7 37.3-34.5 37.8-32.3L37.8-32.3Q36.2-32.45 35.23-32.5 34.25-32.55 33.5-32.55L33.5-32.55Q30.95-32.55 28.83-32.33 26.7-32.1 24.8-31.8L24.8-31.8Q24.5-31.35 24.13-30.65 23.75-29.95 23.15-28.68 22.55-27.4 21.63-25.35 20.7-23.3 19.3-20.15L19.3-20.15Q21.25-20.45 23.03-20.65 24.8-20.85 26-20.85ZM32.1-3.2L32.1-3.2Q32.1-5.4 33.15-9.38 34.2-13.35 36.1-18.65L36.1-18.65Q39.2-27.1 41.92-32.73 44.65-38.35 47.25-41.5L47.25-41.5Q47.85-41.4 48.72-41 49.6-40.6 50.45-40.13 51.3-39.65 51.97-39.15 52.65-38.65 52.85-38.35L52.85-38.35Q48.95-33.75 46-28.45 43.05-23.15 40.6-16.3L40.6-16.3Q38.5-10.4 37.4-5.68 36.3-0.95 36.3 2.2L36.3 2.2Q36.3 3.05 36.3 3.25 36.3 3.45 36.35 3.65L36.35 3.65Q35.65 3.55 35.15 3.3 34.65 3.05 34.5 2.7L34.5 2.7Q34.4 2.45 33.95 1.98 33.5 1.5 33.15 1.25L33.15 1.25Q32.7 0.95 32.4-0.33 32.1-1.6 32.1-3.2ZM49.64 1.75L49.64 1.75Q46.79 1.45 45.09-0.75 43.39-2.95 43.39-6.35L43.39-6.35Q43.39-8.35 43.99-10.5 44.59-12.65 45.69-14.68 46.79-16.7 48.29-18.5 49.79-20.3 51.54-21.6L51.54-21.6Q54.29-23.65 56.69-23.65L56.69-23.65Q58.3-22.8 59.84-20.1L59.84-20.1Q60.09-20.1 60.3-20.13 60.49-20.15 60.74-20.15L60.74-20.15Q63.39-20.15 63.39-15.45L63.39-15.45Q63.39-12.3 62.37-9.47 61.34-6.65 59.52-4.35 57.69-2.05 55.17-0.48 52.64 1.1 49.64 1.75ZM52.19-14L52.19-14Q51.34-12.85 50.59-11.5 49.84-10.15 49.29-8.78 48.74-7.4 48.44-6.13 48.14-4.85 48.14-3.85L48.14-3.85Q48.14-2.65 48.54-1.55 48.94-0.45 49.44-0.3L49.44-0.3Q51.69-0.8 53.57-2.18 55.44-3.55 56.82-5.6 58.19-7.65 58.97-10.25 59.74-12.85 59.74-15.8L59.74-15.8Q59.74-17.1 59.59-17.85 59.44-18.6 59.09-19.15L59.09-19.15Q56.89-18.5 55.17-17.05 53.44-15.6 52.19-14ZM66.24-2.05L66.24-2.05Q66.24-3.05 66.47-4.85 66.69-6.65 67.07-8.75 67.44-10.85 67.92-13.05 68.39-15.25 68.89-17L68.89-17Q69.54-19.35 70.92-20.63 72.29-21.9 74.34-21.9L74.34-21.9Q75.44-21.9 76.52-21.55 77.59-21.2 77.79-20.65L77.79-20.65Q76.34-19.45 75.47-17.68 74.59-15.9 74.07-13.88 73.54-11.85 73.27-9.73 72.99-7.6 72.69-5.75L72.69-5.75Q74.34-7.95 75.82-9.73 77.29-11.5 78.44-12.55L78.44-12.55Q79.99-14 80.54-14.98 81.09-15.95 81.49-17.1L81.49-17.1Q81.79-18 82.22-19.2 82.64-20.4 83.64-21.4L83.64-21.4Q83.84-21.45 84.49-21.45L84.49-21.45Q84.99-21.45 85.57-21.4 86.14-21.35 86.64-21.2 87.14-21.05 87.49-20.85 87.84-20.65 87.89-20.35L87.89-20.35Q87.09-19.3 86.39-17.07 85.69-14.85 85.14-12.2 84.59-9.55 84.14-6.93 83.69-4.3 83.34-2.5L83.34-2.5Q83.54-2.6 84.24-3.3 84.94-4 85.82-5.05 86.69-6.1 87.67-7.35 88.64-8.6 89.39-9.8L89.39-9.8Q90.34-11.25 90.97-12.53 91.59-13.8 92.07-15.25 92.54-16.7 92.94-18.48 93.34-20.25 93.79-22.7L93.79-22.7Q94.09-23.1 95.12-23.38 96.14-23.65 96.99-23.65L96.99-23.65Q97.74-23.65 98.09-23.4L98.09-23.4Q97.84-20.6 97.17-18.4 96.49-16.2 95.34-14.13 94.19-12.05 92.49-9.98 90.79-7.9 88.49-5.45L88.49-5.45Q87.54-4.45 86.42-3.25 85.29-2.05 84.22-1.03 83.14 0 82.22 0.7 81.29 1.4 80.79 1.4L80.79 1.4Q79.64 1.4 78.89 0.5 78.14-0.4 78.14-1.8L78.14-1.8Q78.14-3.25 78.27-4.33 78.39-5.4 78.69-6.6L78.69-6.6Q78.99-7.7 79.17-8.45 79.34-9.2 79.47-9.75 79.59-10.3 79.64-10.7 79.69-11.1 79.74-11.5L79.74-11.5Q79.34-11.3 78.69-10.68 78.04-10.05 77.34-9.22 76.64-8.4 75.94-7.55 75.24-6.7 74.79-6.1L74.79-6.1Q73.84-4.8 73.14-3.8 72.44-2.8 71.82-1.9 71.19-1 70.59-0.08 69.99 0.85 69.19 1.9L69.19 1.9Q67.59 1.4 66.92 0.4 66.24-0.6 66.24-2.05Z" opacity="1" transform="matrix(1,0,0,1,0,0)" fill="black" class="wordmark-text-0" id="SvgjsPath1189"></path></svg></g></svg></g></svg></g></svg></g><g><svg viewBox="0 0 221.33386021923658 221.33386021923658" height="221.33386021923658" width="221.33386021923658"><g><svg></svg></g><g id="SvgjsG1188"><svg viewBox="0 0 221.33386021923658 221.33386021923658" height="221.33386021923658" width="221.33386021923658"><g><path d="M0 110.667c0-61.12 49.547-110.667 110.667-110.667 61.12 0 110.667 49.547 110.667 110.667 0 61.12-49.547 110.667-110.667 110.667-61.12 0-110.667-49.547-110.667-110.667zM110.667 212.092c56.016 0 101.425-45.41 101.425-101.425 0-56.016-45.41-101.425-101.425-101.425-56.016 0-101.425 45.41-101.425 101.425 0 56.016 45.41 101.425 101.425 101.425z" fill="black" stroke="transparent"></path></g><g transform="matrix(1,0,0,1,57.445702261604886,52.13210990840857)"><svg viewBox="0 0 106.44245569602681 117.06964040241944" height="117.06964040241944" width="106.44245569602681"><g><svg xmlns="http://www.w3.org/2000/svg" xmlns:xlink="http://www.w3.org/1999/xlink" version="1.0" x="0" y="0" viewBox="2 0 12.883127534945315 14.169375348513816" style="enable-background:new 0 0 16 16;" xml:space="preserve" height="117.06964040241944" width="106.44245569602681" class="icon-cg-0" data-fill-palette-color="accent" id="SvgjsSvg1187"><path d="M10.216 14.068c-0.122 0.135-0.322 0.135-0.444 0.001l-2.769-3.084c-0.123-0.135-0.118-0.351 0.011-0.479l0.475-0.476c0.129-0.128 0.338-0.127 0.464 0.004L9.758 11.9c0.127 0.131 0.332 0.128 0.454-0.007l3.424-3.752c0.123-0.134 0.334-0.145 0.47-0.022l0.42 0.33c0.458 0.458 0.494 0.506 0 1L10.216 14.068z" fill="black"></path><path d="M7.5 2C7 2 7 3 7 3h1C8 3 8 2 7.5 2z" fill="black"></path><path d="M12 2h-2C9.914 1 9 0 7.5 0S5.086 1 5 2H3c0 0-1 0-1 1 0 0.815 0 9 0 10s1 1 1 1h5.628l-2.5-2.485c-0.42-0.461-0.191-1.052 0.25-1.492l0.75-0.747c0.217-0.217 0.444-0.248 0.75-0.248 0.309 0 0.785 0.279 1 0.502l1.145 1.25L13 7.571C13 7.571 13 4 13 3S12 2 12 2zM4.5 8H4c0 0-0.5 0-0.5-0.5S4 7 4 7h0.5C4.5 7 5 7 5 7.5S4.5 8 4.5 8zM4.5 6H4c0 0-0.5 0-0.5-0.5S4 5 4 5h0.5C4.5 5 5 5 5 5.5S4.5 6 4.5 6zM11 8H6.5C6.5 8 6 8 6 7.5S6.5 7 6.5 7H11c0 0 0.5 0 0.5 0.5S11 8 11 8zM11 6H6.5C6.5 6 6 6 6 5.5S6.5 5 6.5 5H11c0 0 0.5 0 0.5 0.5S11 6 11 6zM3 4c0 0 0-1 1-1s2 0 2 0 0-1.938 1.5-1.938S9.027 3 9 3c0 0 1 0 2 0s1 1 1 1H3z" fill="black"></path></svg></g></svg></g></svg></g></svg></g></svg></g></svg></g></svg></g><defs><mask></mask></defs></svg><rect width="320" height="360" fill="black" stroke="none" visibility="hidden"></rect></g></mask></svg><rect width="320" height="360" fill="black" stroke="none" visibility="hidden"></rect></g></mask></svg><rect width="320" height="360" fill="black" stroke="none" visibility="hidden"></rect></g></mask><linearGradient x1="0" x2="1" y1="0.578" y2="0.595" id="ed99dfd9-1179-462a-b59f-fe23d3f6c530"><stop stop-color="#6ee2f5" offset="0"></stop><stop stop-color="#6454f0" offset="1"></stop></linearGradient></svg><rect width="320" height="360" fill="none" stroke="none" visibility="hidden"></rect></g></svg></g></svg>